G04 #@! TF.GenerationSoftware,KiCad,Pcbnew,(5.1.5-0-10_14)*
G04 #@! TF.CreationDate,2020-04-30T13:13:03+04:00*
G04 #@! TF.ProjectId,E73-2G4M04S1B-Breakout,4537332d-3247-4344-9d30-345331422d42,A1*
G04 #@! TF.SameCoordinates,Original*
G04 #@! TF.FileFunction,Legend,Top*
G04 #@! TF.FilePolarity,Positive*
%FSLAX46Y46*%
G04 Gerber Fmt 4.6, Leading zero omitted, Abs format (unit mm)*
G04 Created by KiCad (PCBNEW (5.1.5-0-10_14)) date 2020-04-30 13:13:03*
%MOMM*%
%LPD*%
G04 APERTURE LIST*
%ADD10C,0.200000*%
%ADD11C,0.175000*%
%ADD12C,0.250000*%
%ADD13C,0.120000*%
G04 APERTURE END LIST*
D10*
X148521428Y-92361904D02*
X148521428Y-91828571D01*
X148521428Y-91904761D02*
X148559523Y-91866666D01*
X148635714Y-91828571D01*
X148750000Y-91828571D01*
X148826190Y-91866666D01*
X148864285Y-91942857D01*
X148864285Y-92361904D01*
X148864285Y-91942857D02*
X148902380Y-91866666D01*
X148978571Y-91828571D01*
X149092857Y-91828571D01*
X149169047Y-91866666D01*
X149207142Y-91942857D01*
X149207142Y-92361904D01*
X149702380Y-92361904D02*
X149626190Y-92323809D01*
X149588095Y-92285714D01*
X149550000Y-92209523D01*
X149550000Y-91980952D01*
X149588095Y-91904761D01*
X149626190Y-91866666D01*
X149702380Y-91828571D01*
X149816666Y-91828571D01*
X149892857Y-91866666D01*
X149930952Y-91904761D01*
X149969047Y-91980952D01*
X149969047Y-92209523D01*
X149930952Y-92285714D01*
X149892857Y-92323809D01*
X149816666Y-92361904D01*
X149702380Y-92361904D01*
X150426190Y-92361904D02*
X150350000Y-92323809D01*
X150311904Y-92247619D01*
X150311904Y-91561904D01*
X151073809Y-92323809D02*
X150997619Y-92361904D01*
X150845238Y-92361904D01*
X150769047Y-92323809D01*
X150730952Y-92285714D01*
X150692857Y-92209523D01*
X150692857Y-91980952D01*
X150730952Y-91904761D01*
X150769047Y-91866666D01*
X150845238Y-91828571D01*
X150997619Y-91828571D01*
X151073809Y-91866666D01*
X151416666Y-92361904D02*
X151416666Y-91561904D01*
X151759523Y-92361904D02*
X151759523Y-91942857D01*
X151721428Y-91866666D01*
X151645238Y-91828571D01*
X151530952Y-91828571D01*
X151454761Y-91866666D01*
X151416666Y-91904761D01*
X152483333Y-92361904D02*
X152483333Y-91942857D01*
X152445238Y-91866666D01*
X152369047Y-91828571D01*
X152216666Y-91828571D01*
X152140476Y-91866666D01*
X152483333Y-92323809D02*
X152407142Y-92361904D01*
X152216666Y-92361904D01*
X152140476Y-92323809D01*
X152102380Y-92247619D01*
X152102380Y-92171428D01*
X152140476Y-92095238D01*
X152216666Y-92057142D01*
X152407142Y-92057142D01*
X152483333Y-92019047D01*
X152864285Y-91828571D02*
X152864285Y-92361904D01*
X152864285Y-91904761D02*
X152902380Y-91866666D01*
X152978571Y-91828571D01*
X153092857Y-91828571D01*
X153169047Y-91866666D01*
X153207142Y-91942857D01*
X153207142Y-92361904D01*
X153702380Y-92361904D02*
X153626190Y-92323809D01*
X153588095Y-92285714D01*
X153550000Y-92209523D01*
X153550000Y-91980952D01*
X153588095Y-91904761D01*
X153626190Y-91866666D01*
X153702380Y-91828571D01*
X153816666Y-91828571D01*
X153892857Y-91866666D01*
X153930952Y-91904761D01*
X153969047Y-91980952D01*
X153969047Y-92209523D01*
X153930952Y-92285714D01*
X153892857Y-92323809D01*
X153816666Y-92361904D01*
X153702380Y-92361904D01*
X154197619Y-91828571D02*
X154502380Y-91828571D01*
X154311904Y-92361904D02*
X154311904Y-91676190D01*
X154350000Y-91600000D01*
X154426190Y-91561904D01*
X154502380Y-91561904D01*
X154654761Y-91828571D02*
X154959523Y-91828571D01*
X154769047Y-92361904D02*
X154769047Y-91676190D01*
X154807142Y-91600000D01*
X154883333Y-91561904D01*
X154959523Y-91561904D01*
X155226190Y-92285714D02*
X155264285Y-92323809D01*
X155226190Y-92361904D01*
X155188095Y-92323809D01*
X155226190Y-92285714D01*
X155226190Y-92361904D01*
X155607142Y-92361904D02*
X155607142Y-91828571D01*
X155607142Y-91904761D02*
X155645238Y-91866666D01*
X155721428Y-91828571D01*
X155835714Y-91828571D01*
X155911904Y-91866666D01*
X155950000Y-91942857D01*
X155950000Y-92361904D01*
X155950000Y-91942857D02*
X155988095Y-91866666D01*
X156064285Y-91828571D01*
X156178571Y-91828571D01*
X156254761Y-91866666D01*
X156292857Y-91942857D01*
X156292857Y-92361904D01*
X156978571Y-92323809D02*
X156902380Y-92361904D01*
X156750000Y-92361904D01*
X156673809Y-92323809D01*
X156635714Y-92247619D01*
X156635714Y-91942857D01*
X156673809Y-91866666D01*
X156750000Y-91828571D01*
X156902380Y-91828571D01*
X156978571Y-91866666D01*
X157016666Y-91942857D01*
X157016666Y-92019047D01*
X156635714Y-92095238D01*
D11*
X142273809Y-90442857D02*
X142540476Y-90442857D01*
X142654761Y-90861904D02*
X142273809Y-90861904D01*
X142273809Y-90061904D01*
X142654761Y-90061904D01*
X142921428Y-90061904D02*
X143454761Y-90061904D01*
X143111904Y-90861904D01*
X143683333Y-90061904D02*
X144178571Y-90061904D01*
X143911904Y-90366666D01*
X144026190Y-90366666D01*
X144102380Y-90404761D01*
X144140476Y-90442857D01*
X144178571Y-90519047D01*
X144178571Y-90709523D01*
X144140476Y-90785714D01*
X144102380Y-90823809D01*
X144026190Y-90861904D01*
X143797619Y-90861904D01*
X143721428Y-90823809D01*
X143683333Y-90785714D01*
X144521428Y-90557142D02*
X145130952Y-90557142D01*
X145473809Y-90138095D02*
X145511904Y-90100000D01*
X145588095Y-90061904D01*
X145778571Y-90061904D01*
X145854761Y-90100000D01*
X145892857Y-90138095D01*
X145930952Y-90214285D01*
X145930952Y-90290476D01*
X145892857Y-90404761D01*
X145435714Y-90861904D01*
X145930952Y-90861904D01*
X146692857Y-90100000D02*
X146616666Y-90061904D01*
X146502380Y-90061904D01*
X146388095Y-90100000D01*
X146311904Y-90176190D01*
X146273809Y-90252380D01*
X146235714Y-90404761D01*
X146235714Y-90519047D01*
X146273809Y-90671428D01*
X146311904Y-90747619D01*
X146388095Y-90823809D01*
X146502380Y-90861904D01*
X146578571Y-90861904D01*
X146692857Y-90823809D01*
X146730952Y-90785714D01*
X146730952Y-90519047D01*
X146578571Y-90519047D01*
X147416666Y-90328571D02*
X147416666Y-90861904D01*
X147226190Y-90023809D02*
X147035714Y-90595238D01*
X147530952Y-90595238D01*
X147835714Y-90861904D02*
X147835714Y-90061904D01*
X148102380Y-90633333D01*
X148369047Y-90061904D01*
X148369047Y-90861904D01*
X148902380Y-90061904D02*
X148978571Y-90061904D01*
X149054761Y-90100000D01*
X149092857Y-90138095D01*
X149130952Y-90214285D01*
X149169047Y-90366666D01*
X149169047Y-90557142D01*
X149130952Y-90709523D01*
X149092857Y-90785714D01*
X149054761Y-90823809D01*
X148978571Y-90861904D01*
X148902380Y-90861904D01*
X148826190Y-90823809D01*
X148788095Y-90785714D01*
X148750000Y-90709523D01*
X148711904Y-90557142D01*
X148711904Y-90366666D01*
X148750000Y-90214285D01*
X148788095Y-90138095D01*
X148826190Y-90100000D01*
X148902380Y-90061904D01*
X149854761Y-90328571D02*
X149854761Y-90861904D01*
X149664285Y-90023809D02*
X149473809Y-90595238D01*
X149969047Y-90595238D01*
X150235714Y-90823809D02*
X150350000Y-90861904D01*
X150540476Y-90861904D01*
X150616666Y-90823809D01*
X150654761Y-90785714D01*
X150692857Y-90709523D01*
X150692857Y-90633333D01*
X150654761Y-90557142D01*
X150616666Y-90519047D01*
X150540476Y-90480952D01*
X150388095Y-90442857D01*
X150311904Y-90404761D01*
X150273809Y-90366666D01*
X150235714Y-90290476D01*
X150235714Y-90214285D01*
X150273809Y-90138095D01*
X150311904Y-90100000D01*
X150388095Y-90061904D01*
X150578571Y-90061904D01*
X150692857Y-90100000D01*
X151454761Y-90861904D02*
X150997619Y-90861904D01*
X151226190Y-90861904D02*
X151226190Y-90061904D01*
X151150000Y-90176190D01*
X151073809Y-90252380D01*
X150997619Y-90290476D01*
X152064285Y-90442857D02*
X152178571Y-90480952D01*
X152216666Y-90519047D01*
X152254761Y-90595238D01*
X152254761Y-90709523D01*
X152216666Y-90785714D01*
X152178571Y-90823809D01*
X152102380Y-90861904D01*
X151797619Y-90861904D01*
X151797619Y-90061904D01*
X152064285Y-90061904D01*
X152140476Y-90100000D01*
X152178571Y-90138095D01*
X152216666Y-90214285D01*
X152216666Y-90290476D01*
X152178571Y-90366666D01*
X152140476Y-90404761D01*
X152064285Y-90442857D01*
X151797619Y-90442857D01*
X153473809Y-90442857D02*
X153588095Y-90480952D01*
X153626190Y-90519047D01*
X153664285Y-90595238D01*
X153664285Y-90709523D01*
X153626190Y-90785714D01*
X153588095Y-90823809D01*
X153511904Y-90861904D01*
X153207142Y-90861904D01*
X153207142Y-90061904D01*
X153473809Y-90061904D01*
X153550000Y-90100000D01*
X153588095Y-90138095D01*
X153626190Y-90214285D01*
X153626190Y-90290476D01*
X153588095Y-90366666D01*
X153550000Y-90404761D01*
X153473809Y-90442857D01*
X153207142Y-90442857D01*
X154007142Y-90861904D02*
X154007142Y-90328571D01*
X154007142Y-90480952D02*
X154045238Y-90404761D01*
X154083333Y-90366666D01*
X154159523Y-90328571D01*
X154235714Y-90328571D01*
X154807142Y-90823809D02*
X154730952Y-90861904D01*
X154578571Y-90861904D01*
X154502380Y-90823809D01*
X154464285Y-90747619D01*
X154464285Y-90442857D01*
X154502380Y-90366666D01*
X154578571Y-90328571D01*
X154730952Y-90328571D01*
X154807142Y-90366666D01*
X154845238Y-90442857D01*
X154845238Y-90519047D01*
X154464285Y-90595238D01*
X155530952Y-90861904D02*
X155530952Y-90442857D01*
X155492857Y-90366666D01*
X155416666Y-90328571D01*
X155264285Y-90328571D01*
X155188095Y-90366666D01*
X155530952Y-90823809D02*
X155454761Y-90861904D01*
X155264285Y-90861904D01*
X155188095Y-90823809D01*
X155150000Y-90747619D01*
X155150000Y-90671428D01*
X155188095Y-90595238D01*
X155264285Y-90557142D01*
X155454761Y-90557142D01*
X155530952Y-90519047D01*
X155911904Y-90861904D02*
X155911904Y-90061904D01*
X155988095Y-90557142D02*
X156216666Y-90861904D01*
X156216666Y-90328571D02*
X155911904Y-90633333D01*
X156673809Y-90861904D02*
X156597619Y-90823809D01*
X156559523Y-90785714D01*
X156521428Y-90709523D01*
X156521428Y-90480952D01*
X156559523Y-90404761D01*
X156597619Y-90366666D01*
X156673809Y-90328571D01*
X156788095Y-90328571D01*
X156864285Y-90366666D01*
X156902380Y-90404761D01*
X156940476Y-90480952D01*
X156940476Y-90709523D01*
X156902380Y-90785714D01*
X156864285Y-90823809D01*
X156788095Y-90861904D01*
X156673809Y-90861904D01*
X157626190Y-90328571D02*
X157626190Y-90861904D01*
X157283333Y-90328571D02*
X157283333Y-90747619D01*
X157321428Y-90823809D01*
X157397619Y-90861904D01*
X157511904Y-90861904D01*
X157588095Y-90823809D01*
X157626190Y-90785714D01*
X157892857Y-90328571D02*
X158197619Y-90328571D01*
X158007142Y-90061904D02*
X158007142Y-90747619D01*
X158045238Y-90823809D01*
X158121428Y-90861904D01*
X158197619Y-90861904D01*
X159530952Y-90861904D02*
X159264285Y-90480952D01*
X159073809Y-90861904D02*
X159073809Y-90061904D01*
X159378571Y-90061904D01*
X159454761Y-90100000D01*
X159492857Y-90138095D01*
X159530952Y-90214285D01*
X159530952Y-90328571D01*
X159492857Y-90404761D01*
X159454761Y-90442857D01*
X159378571Y-90480952D01*
X159073809Y-90480952D01*
X160178571Y-90823809D02*
X160102380Y-90861904D01*
X159950000Y-90861904D01*
X159873809Y-90823809D01*
X159835714Y-90747619D01*
X159835714Y-90442857D01*
X159873809Y-90366666D01*
X159950000Y-90328571D01*
X160102380Y-90328571D01*
X160178571Y-90366666D01*
X160216666Y-90442857D01*
X160216666Y-90519047D01*
X159835714Y-90595238D01*
X160483333Y-90328571D02*
X160673809Y-90861904D01*
X160864285Y-90328571D01*
X161169047Y-90785714D02*
X161207142Y-90823809D01*
X161169047Y-90861904D01*
X161130952Y-90823809D01*
X161169047Y-90785714D01*
X161169047Y-90861904D01*
X162121428Y-90633333D02*
X162502380Y-90633333D01*
X162045238Y-90861904D02*
X162311904Y-90061904D01*
X162578571Y-90861904D01*
X163264285Y-90861904D02*
X162807142Y-90861904D01*
X163035714Y-90861904D02*
X163035714Y-90061904D01*
X162959523Y-90176190D01*
X162883333Y-90252380D01*
X162807142Y-90290476D01*
D12*
X155321428Y-97702380D02*
X155321428Y-96702380D01*
X155702380Y-96702380D01*
X155797619Y-96750000D01*
X155845238Y-96797619D01*
X155892857Y-96892857D01*
X155892857Y-97035714D01*
X155845238Y-97130952D01*
X155797619Y-97178571D01*
X155702380Y-97226190D01*
X155321428Y-97226190D01*
X156511904Y-96702380D02*
X156607142Y-96702380D01*
X156702380Y-96750000D01*
X156750000Y-96797619D01*
X156797619Y-96892857D01*
X156845238Y-97083333D01*
X156845238Y-97321428D01*
X156797619Y-97511904D01*
X156750000Y-97607142D01*
X156702380Y-97654761D01*
X156607142Y-97702380D01*
X156511904Y-97702380D01*
X156416666Y-97654761D01*
X156369047Y-97607142D01*
X156321428Y-97511904D01*
X156273809Y-97321428D01*
X156273809Y-97083333D01*
X156321428Y-96892857D01*
X156369047Y-96797619D01*
X156416666Y-96750000D01*
X156511904Y-96702380D01*
X157273809Y-97607142D02*
X157321428Y-97654761D01*
X157273809Y-97702380D01*
X157226190Y-97654761D01*
X157273809Y-97607142D01*
X157273809Y-97702380D01*
X157702380Y-96797619D02*
X157750000Y-96750000D01*
X157845238Y-96702380D01*
X158083333Y-96702380D01*
X158178571Y-96750000D01*
X158226190Y-96797619D01*
X158273809Y-96892857D01*
X158273809Y-96988095D01*
X158226190Y-97130952D01*
X157654761Y-97702380D01*
X158273809Y-97702380D01*
X159130952Y-97035714D02*
X159130952Y-97702380D01*
X158892857Y-96654761D02*
X158654761Y-97369047D01*
X159273809Y-97369047D01*
X155071428Y-120702380D02*
X155071428Y-119702380D01*
X155452380Y-119702380D01*
X155547619Y-119750000D01*
X155595238Y-119797619D01*
X155642857Y-119892857D01*
X155642857Y-120035714D01*
X155595238Y-120130952D01*
X155547619Y-120178571D01*
X155452380Y-120226190D01*
X155071428Y-120226190D01*
X156261904Y-119702380D02*
X156357142Y-119702380D01*
X156452380Y-119750000D01*
X156500000Y-119797619D01*
X156547619Y-119892857D01*
X156595238Y-120083333D01*
X156595238Y-120321428D01*
X156547619Y-120511904D01*
X156500000Y-120607142D01*
X156452380Y-120654761D01*
X156357142Y-120702380D01*
X156261904Y-120702380D01*
X156166666Y-120654761D01*
X156119047Y-120607142D01*
X156071428Y-120511904D01*
X156023809Y-120321428D01*
X156023809Y-120083333D01*
X156071428Y-119892857D01*
X156119047Y-119797619D01*
X156166666Y-119750000D01*
X156261904Y-119702380D01*
X157023809Y-120607142D02*
X157071428Y-120654761D01*
X157023809Y-120702380D01*
X156976190Y-120654761D01*
X157023809Y-120607142D01*
X157023809Y-120702380D01*
X158023809Y-120702380D02*
X157452380Y-120702380D01*
X157738095Y-120702380D02*
X157738095Y-119702380D01*
X157642857Y-119845238D01*
X157547619Y-119940476D01*
X157452380Y-119988095D01*
X158357142Y-119702380D02*
X159023809Y-119702380D01*
X158595238Y-120702380D01*
X155071428Y-138452380D02*
X155071428Y-137452380D01*
X155452380Y-137452380D01*
X155547619Y-137500000D01*
X155595238Y-137547619D01*
X155642857Y-137642857D01*
X155642857Y-137785714D01*
X155595238Y-137880952D01*
X155547619Y-137928571D01*
X155452380Y-137976190D01*
X155071428Y-137976190D01*
X156261904Y-137452380D02*
X156357142Y-137452380D01*
X156452380Y-137500000D01*
X156500000Y-137547619D01*
X156547619Y-137642857D01*
X156595238Y-137833333D01*
X156595238Y-138071428D01*
X156547619Y-138261904D01*
X156500000Y-138357142D01*
X156452380Y-138404761D01*
X156357142Y-138452380D01*
X156261904Y-138452380D01*
X156166666Y-138404761D01*
X156119047Y-138357142D01*
X156071428Y-138261904D01*
X156023809Y-138071428D01*
X156023809Y-137833333D01*
X156071428Y-137642857D01*
X156119047Y-137547619D01*
X156166666Y-137500000D01*
X156261904Y-137452380D01*
X157023809Y-138357142D02*
X157071428Y-138404761D01*
X157023809Y-138452380D01*
X156976190Y-138404761D01*
X157023809Y-138357142D01*
X157023809Y-138452380D01*
X158023809Y-138452380D02*
X157452380Y-138452380D01*
X157738095Y-138452380D02*
X157738095Y-137452380D01*
X157642857Y-137595238D01*
X157547619Y-137690476D01*
X157452380Y-137738095D01*
X158642857Y-137452380D02*
X158738095Y-137452380D01*
X158833333Y-137500000D01*
X158880952Y-137547619D01*
X158928571Y-137642857D01*
X158976190Y-137833333D01*
X158976190Y-138071428D01*
X158928571Y-138261904D01*
X158880952Y-138357142D01*
X158833333Y-138404761D01*
X158738095Y-138452380D01*
X158642857Y-138452380D01*
X158547619Y-138404761D01*
X158500000Y-138357142D01*
X158452380Y-138261904D01*
X158404761Y-138071428D01*
X158404761Y-137833333D01*
X158452380Y-137642857D01*
X158500000Y-137547619D01*
X158547619Y-137500000D01*
X158642857Y-137452380D01*
X155071428Y-133202380D02*
X155071428Y-132202380D01*
X155452380Y-132202380D01*
X155547619Y-132250000D01*
X155595238Y-132297619D01*
X155642857Y-132392857D01*
X155642857Y-132535714D01*
X155595238Y-132630952D01*
X155547619Y-132678571D01*
X155452380Y-132726190D01*
X155071428Y-132726190D01*
X156261904Y-132202380D02*
X156357142Y-132202380D01*
X156452380Y-132250000D01*
X156500000Y-132297619D01*
X156547619Y-132392857D01*
X156595238Y-132583333D01*
X156595238Y-132821428D01*
X156547619Y-133011904D01*
X156500000Y-133107142D01*
X156452380Y-133154761D01*
X156357142Y-133202380D01*
X156261904Y-133202380D01*
X156166666Y-133154761D01*
X156119047Y-133107142D01*
X156071428Y-133011904D01*
X156023809Y-132821428D01*
X156023809Y-132583333D01*
X156071428Y-132392857D01*
X156119047Y-132297619D01*
X156166666Y-132250000D01*
X156261904Y-132202380D01*
X157023809Y-133107142D02*
X157071428Y-133154761D01*
X157023809Y-133202380D01*
X156976190Y-133154761D01*
X157023809Y-133107142D01*
X157023809Y-133202380D01*
X158023809Y-133202380D02*
X157452380Y-133202380D01*
X157738095Y-133202380D02*
X157738095Y-132202380D01*
X157642857Y-132345238D01*
X157547619Y-132440476D01*
X157452380Y-132488095D01*
X158404761Y-132297619D02*
X158452380Y-132250000D01*
X158547619Y-132202380D01*
X158785714Y-132202380D01*
X158880952Y-132250000D01*
X158928571Y-132297619D01*
X158976190Y-132392857D01*
X158976190Y-132488095D01*
X158928571Y-132630952D01*
X158357142Y-133202380D01*
X158976190Y-133202380D01*
X155321428Y-100202380D02*
X155321428Y-99202380D01*
X155702380Y-99202380D01*
X155797619Y-99250000D01*
X155845238Y-99297619D01*
X155892857Y-99392857D01*
X155892857Y-99535714D01*
X155845238Y-99630952D01*
X155797619Y-99678571D01*
X155702380Y-99726190D01*
X155321428Y-99726190D01*
X156511904Y-99202380D02*
X156607142Y-99202380D01*
X156702380Y-99250000D01*
X156750000Y-99297619D01*
X156797619Y-99392857D01*
X156845238Y-99583333D01*
X156845238Y-99821428D01*
X156797619Y-100011904D01*
X156750000Y-100107142D01*
X156702380Y-100154761D01*
X156607142Y-100202380D01*
X156511904Y-100202380D01*
X156416666Y-100154761D01*
X156369047Y-100107142D01*
X156321428Y-100011904D01*
X156273809Y-99821428D01*
X156273809Y-99583333D01*
X156321428Y-99392857D01*
X156369047Y-99297619D01*
X156416666Y-99250000D01*
X156511904Y-99202380D01*
X157273809Y-100107142D02*
X157321428Y-100154761D01*
X157273809Y-100202380D01*
X157226190Y-100154761D01*
X157273809Y-100107142D01*
X157273809Y-100202380D01*
X157702380Y-99297619D02*
X157750000Y-99250000D01*
X157845238Y-99202380D01*
X158083333Y-99202380D01*
X158178571Y-99250000D01*
X158226190Y-99297619D01*
X158273809Y-99392857D01*
X158273809Y-99488095D01*
X158226190Y-99630952D01*
X157654761Y-100202380D01*
X158273809Y-100202380D01*
X158607142Y-99202380D02*
X159226190Y-99202380D01*
X158892857Y-99583333D01*
X159035714Y-99583333D01*
X159130952Y-99630952D01*
X159178571Y-99678571D01*
X159226190Y-99773809D01*
X159226190Y-100011904D01*
X159178571Y-100107142D01*
X159130952Y-100154761D01*
X159035714Y-100202380D01*
X158750000Y-100202380D01*
X158654761Y-100154761D01*
X158607142Y-100107142D01*
X155071428Y-143452380D02*
X155071428Y-142452380D01*
X155452380Y-142452380D01*
X155547619Y-142500000D01*
X155595238Y-142547619D01*
X155642857Y-142642857D01*
X155642857Y-142785714D01*
X155595238Y-142880952D01*
X155547619Y-142928571D01*
X155452380Y-142976190D01*
X155071428Y-142976190D01*
X156261904Y-142452380D02*
X156357142Y-142452380D01*
X156452380Y-142500000D01*
X156500000Y-142547619D01*
X156547619Y-142642857D01*
X156595238Y-142833333D01*
X156595238Y-143071428D01*
X156547619Y-143261904D01*
X156500000Y-143357142D01*
X156452380Y-143404761D01*
X156357142Y-143452380D01*
X156261904Y-143452380D01*
X156166666Y-143404761D01*
X156119047Y-143357142D01*
X156071428Y-143261904D01*
X156023809Y-143071428D01*
X156023809Y-142833333D01*
X156071428Y-142642857D01*
X156119047Y-142547619D01*
X156166666Y-142500000D01*
X156261904Y-142452380D01*
X157023809Y-143357142D02*
X157071428Y-143404761D01*
X157023809Y-143452380D01*
X156976190Y-143404761D01*
X157023809Y-143357142D01*
X157023809Y-143452380D01*
X157690476Y-142452380D02*
X157785714Y-142452380D01*
X157880952Y-142500000D01*
X157928571Y-142547619D01*
X157976190Y-142642857D01*
X158023809Y-142833333D01*
X158023809Y-143071428D01*
X157976190Y-143261904D01*
X157928571Y-143357142D01*
X157880952Y-143404761D01*
X157785714Y-143452380D01*
X157690476Y-143452380D01*
X157595238Y-143404761D01*
X157547619Y-143357142D01*
X157500000Y-143261904D01*
X157452380Y-143071428D01*
X157452380Y-142833333D01*
X157500000Y-142642857D01*
X157547619Y-142547619D01*
X157595238Y-142500000D01*
X157690476Y-142452380D01*
X158595238Y-142880952D02*
X158500000Y-142833333D01*
X158452380Y-142785714D01*
X158404761Y-142690476D01*
X158404761Y-142642857D01*
X158452380Y-142547619D01*
X158500000Y-142500000D01*
X158595238Y-142452380D01*
X158785714Y-142452380D01*
X158880952Y-142500000D01*
X158928571Y-142547619D01*
X158976190Y-142642857D01*
X158976190Y-142690476D01*
X158928571Y-142785714D01*
X158880952Y-142833333D01*
X158785714Y-142880952D01*
X158595238Y-142880952D01*
X158500000Y-142928571D01*
X158452380Y-142976190D01*
X158404761Y-143071428D01*
X158404761Y-143261904D01*
X158452380Y-143357142D01*
X158500000Y-143404761D01*
X158595238Y-143452380D01*
X158785714Y-143452380D01*
X158880952Y-143404761D01*
X158928571Y-143357142D01*
X158976190Y-143261904D01*
X158976190Y-143071428D01*
X158928571Y-142976190D01*
X158880952Y-142928571D01*
X158785714Y-142880952D01*
X155071428Y-135702380D02*
X155071428Y-134702380D01*
X155452380Y-134702380D01*
X155547619Y-134750000D01*
X155595238Y-134797619D01*
X155642857Y-134892857D01*
X155642857Y-135035714D01*
X155595238Y-135130952D01*
X155547619Y-135178571D01*
X155452380Y-135226190D01*
X155071428Y-135226190D01*
X156261904Y-134702380D02*
X156357142Y-134702380D01*
X156452380Y-134750000D01*
X156500000Y-134797619D01*
X156547619Y-134892857D01*
X156595238Y-135083333D01*
X156595238Y-135321428D01*
X156547619Y-135511904D01*
X156500000Y-135607142D01*
X156452380Y-135654761D01*
X156357142Y-135702380D01*
X156261904Y-135702380D01*
X156166666Y-135654761D01*
X156119047Y-135607142D01*
X156071428Y-135511904D01*
X156023809Y-135321428D01*
X156023809Y-135083333D01*
X156071428Y-134892857D01*
X156119047Y-134797619D01*
X156166666Y-134750000D01*
X156261904Y-134702380D01*
X157023809Y-135607142D02*
X157071428Y-135654761D01*
X157023809Y-135702380D01*
X156976190Y-135654761D01*
X157023809Y-135607142D01*
X157023809Y-135702380D01*
X158023809Y-135702380D02*
X157452380Y-135702380D01*
X157738095Y-135702380D02*
X157738095Y-134702380D01*
X157642857Y-134845238D01*
X157547619Y-134940476D01*
X157452380Y-134988095D01*
X158976190Y-135702380D02*
X158404761Y-135702380D01*
X158690476Y-135702380D02*
X158690476Y-134702380D01*
X158595238Y-134845238D01*
X158500000Y-134940476D01*
X158404761Y-134988095D01*
X157464285Y-95202380D02*
X157464285Y-94202380D01*
X158035714Y-95202380D01*
X158035714Y-94202380D01*
X159083333Y-95107142D02*
X159035714Y-95154761D01*
X158892857Y-95202380D01*
X158797619Y-95202380D01*
X158654761Y-95154761D01*
X158559523Y-95059523D01*
X158511904Y-94964285D01*
X158464285Y-94773809D01*
X158464285Y-94630952D01*
X158511904Y-94440476D01*
X158559523Y-94345238D01*
X158654761Y-94250000D01*
X158797619Y-94202380D01*
X158892857Y-94202380D01*
X159035714Y-94250000D01*
X159083333Y-94297619D01*
X155071428Y-140952380D02*
X155071428Y-139952380D01*
X155452380Y-139952380D01*
X155547619Y-140000000D01*
X155595238Y-140047619D01*
X155642857Y-140142857D01*
X155642857Y-140285714D01*
X155595238Y-140380952D01*
X155547619Y-140428571D01*
X155452380Y-140476190D01*
X155071428Y-140476190D01*
X156261904Y-139952380D02*
X156357142Y-139952380D01*
X156452380Y-140000000D01*
X156500000Y-140047619D01*
X156547619Y-140142857D01*
X156595238Y-140333333D01*
X156595238Y-140571428D01*
X156547619Y-140761904D01*
X156500000Y-140857142D01*
X156452380Y-140904761D01*
X156357142Y-140952380D01*
X156261904Y-140952380D01*
X156166666Y-140904761D01*
X156119047Y-140857142D01*
X156071428Y-140761904D01*
X156023809Y-140571428D01*
X156023809Y-140333333D01*
X156071428Y-140142857D01*
X156119047Y-140047619D01*
X156166666Y-140000000D01*
X156261904Y-139952380D01*
X157023809Y-140857142D02*
X157071428Y-140904761D01*
X157023809Y-140952380D01*
X156976190Y-140904761D01*
X157023809Y-140857142D01*
X157023809Y-140952380D01*
X157690476Y-139952380D02*
X157785714Y-139952380D01*
X157880952Y-140000000D01*
X157928571Y-140047619D01*
X157976190Y-140142857D01*
X158023809Y-140333333D01*
X158023809Y-140571428D01*
X157976190Y-140761904D01*
X157928571Y-140857142D01*
X157880952Y-140904761D01*
X157785714Y-140952380D01*
X157690476Y-140952380D01*
X157595238Y-140904761D01*
X157547619Y-140857142D01*
X157500000Y-140761904D01*
X157452380Y-140571428D01*
X157452380Y-140333333D01*
X157500000Y-140142857D01*
X157547619Y-140047619D01*
X157595238Y-140000000D01*
X157690476Y-139952380D01*
X158500000Y-140952380D02*
X158690476Y-140952380D01*
X158785714Y-140904761D01*
X158833333Y-140857142D01*
X158928571Y-140714285D01*
X158976190Y-140523809D01*
X158976190Y-140142857D01*
X158928571Y-140047619D01*
X158880952Y-140000000D01*
X158785714Y-139952380D01*
X158595238Y-139952380D01*
X158500000Y-140000000D01*
X158452380Y-140047619D01*
X158404761Y-140142857D01*
X158404761Y-140380952D01*
X158452380Y-140476190D01*
X158500000Y-140523809D01*
X158595238Y-140571428D01*
X158785714Y-140571428D01*
X158880952Y-140523809D01*
X158928571Y-140476190D01*
X158976190Y-140380952D01*
X155071428Y-125702380D02*
X155071428Y-124702380D01*
X155452380Y-124702380D01*
X155547619Y-124750000D01*
X155595238Y-124797619D01*
X155642857Y-124892857D01*
X155642857Y-125035714D01*
X155595238Y-125130952D01*
X155547619Y-125178571D01*
X155452380Y-125226190D01*
X155071428Y-125226190D01*
X156261904Y-124702380D02*
X156357142Y-124702380D01*
X156452380Y-124750000D01*
X156500000Y-124797619D01*
X156547619Y-124892857D01*
X156595238Y-125083333D01*
X156595238Y-125321428D01*
X156547619Y-125511904D01*
X156500000Y-125607142D01*
X156452380Y-125654761D01*
X156357142Y-125702380D01*
X156261904Y-125702380D01*
X156166666Y-125654761D01*
X156119047Y-125607142D01*
X156071428Y-125511904D01*
X156023809Y-125321428D01*
X156023809Y-125083333D01*
X156071428Y-124892857D01*
X156119047Y-124797619D01*
X156166666Y-124750000D01*
X156261904Y-124702380D01*
X157023809Y-125607142D02*
X157071428Y-125654761D01*
X157023809Y-125702380D01*
X156976190Y-125654761D01*
X157023809Y-125607142D01*
X157023809Y-125702380D01*
X158023809Y-125702380D02*
X157452380Y-125702380D01*
X157738095Y-125702380D02*
X157738095Y-124702380D01*
X157642857Y-124845238D01*
X157547619Y-124940476D01*
X157452380Y-124988095D01*
X158928571Y-124702380D02*
X158452380Y-124702380D01*
X158404761Y-125178571D01*
X158452380Y-125130952D01*
X158547619Y-125083333D01*
X158785714Y-125083333D01*
X158880952Y-125130952D01*
X158928571Y-125178571D01*
X158976190Y-125273809D01*
X158976190Y-125511904D01*
X158928571Y-125607142D01*
X158880952Y-125654761D01*
X158785714Y-125702380D01*
X158547619Y-125702380D01*
X158452380Y-125654761D01*
X158404761Y-125607142D01*
X153738095Y-107904761D02*
X153880952Y-107952380D01*
X154119047Y-107952380D01*
X154214285Y-107904761D01*
X154261904Y-107857142D01*
X154309523Y-107761904D01*
X154309523Y-107666666D01*
X154261904Y-107571428D01*
X154214285Y-107523809D01*
X154119047Y-107476190D01*
X153928571Y-107428571D01*
X153833333Y-107380952D01*
X153785714Y-107333333D01*
X153738095Y-107238095D01*
X153738095Y-107142857D01*
X153785714Y-107047619D01*
X153833333Y-107000000D01*
X153928571Y-106952380D01*
X154166666Y-106952380D01*
X154309523Y-107000000D01*
X154642857Y-106952380D02*
X154880952Y-107952380D01*
X155071428Y-107238095D01*
X155261904Y-107952380D01*
X155500000Y-106952380D01*
X155880952Y-107952380D02*
X155880952Y-106952380D01*
X156119047Y-106952380D01*
X156261904Y-107000000D01*
X156357142Y-107095238D01*
X156404761Y-107190476D01*
X156452380Y-107380952D01*
X156452380Y-107523809D01*
X156404761Y-107714285D01*
X156357142Y-107809523D01*
X156261904Y-107904761D01*
X156119047Y-107952380D01*
X155880952Y-107952380D01*
X157452380Y-107857142D02*
X157404761Y-107904761D01*
X157261904Y-107952380D01*
X157166666Y-107952380D01*
X157023809Y-107904761D01*
X156928571Y-107809523D01*
X156880952Y-107714285D01*
X156833333Y-107523809D01*
X156833333Y-107380952D01*
X156880952Y-107190476D01*
X156928571Y-107095238D01*
X157023809Y-107000000D01*
X157166666Y-106952380D01*
X157261904Y-106952380D01*
X157404761Y-107000000D01*
X157452380Y-107047619D01*
X158357142Y-107952380D02*
X157880952Y-107952380D01*
X157880952Y-106952380D01*
X158690476Y-107952380D02*
X158690476Y-106952380D01*
X159261904Y-107952380D02*
X158833333Y-107380952D01*
X159261904Y-106952380D02*
X158690476Y-107523809D01*
X155071428Y-123202380D02*
X155071428Y-122202380D01*
X155452380Y-122202380D01*
X155547619Y-122250000D01*
X155595238Y-122297619D01*
X155642857Y-122392857D01*
X155642857Y-122535714D01*
X155595238Y-122630952D01*
X155547619Y-122678571D01*
X155452380Y-122726190D01*
X155071428Y-122726190D01*
X156261904Y-122202380D02*
X156357142Y-122202380D01*
X156452380Y-122250000D01*
X156500000Y-122297619D01*
X156547619Y-122392857D01*
X156595238Y-122583333D01*
X156595238Y-122821428D01*
X156547619Y-123011904D01*
X156500000Y-123107142D01*
X156452380Y-123154761D01*
X156357142Y-123202380D01*
X156261904Y-123202380D01*
X156166666Y-123154761D01*
X156119047Y-123107142D01*
X156071428Y-123011904D01*
X156023809Y-122821428D01*
X156023809Y-122583333D01*
X156071428Y-122392857D01*
X156119047Y-122297619D01*
X156166666Y-122250000D01*
X156261904Y-122202380D01*
X157023809Y-123107142D02*
X157071428Y-123154761D01*
X157023809Y-123202380D01*
X156976190Y-123154761D01*
X157023809Y-123107142D01*
X157023809Y-123202380D01*
X158023809Y-123202380D02*
X157452380Y-123202380D01*
X157738095Y-123202380D02*
X157738095Y-122202380D01*
X157642857Y-122345238D01*
X157547619Y-122440476D01*
X157452380Y-122488095D01*
X158880952Y-122202380D02*
X158690476Y-122202380D01*
X158595238Y-122250000D01*
X158547619Y-122297619D01*
X158452380Y-122440476D01*
X158404761Y-122630952D01*
X158404761Y-123011904D01*
X158452380Y-123107142D01*
X158500000Y-123154761D01*
X158595238Y-123202380D01*
X158785714Y-123202380D01*
X158880952Y-123154761D01*
X158928571Y-123107142D01*
X158976190Y-123011904D01*
X158976190Y-122773809D01*
X158928571Y-122678571D01*
X158880952Y-122630952D01*
X158785714Y-122583333D01*
X158595238Y-122583333D01*
X158500000Y-122630952D01*
X158452380Y-122678571D01*
X158404761Y-122773809D01*
X155071428Y-118202380D02*
X155071428Y-117202380D01*
X155452380Y-117202380D01*
X155547619Y-117250000D01*
X155595238Y-117297619D01*
X155642857Y-117392857D01*
X155642857Y-117535714D01*
X155595238Y-117630952D01*
X155547619Y-117678571D01*
X155452380Y-117726190D01*
X155071428Y-117726190D01*
X156261904Y-117202380D02*
X156357142Y-117202380D01*
X156452380Y-117250000D01*
X156500000Y-117297619D01*
X156547619Y-117392857D01*
X156595238Y-117583333D01*
X156595238Y-117821428D01*
X156547619Y-118011904D01*
X156500000Y-118107142D01*
X156452380Y-118154761D01*
X156357142Y-118202380D01*
X156261904Y-118202380D01*
X156166666Y-118154761D01*
X156119047Y-118107142D01*
X156071428Y-118011904D01*
X156023809Y-117821428D01*
X156023809Y-117583333D01*
X156071428Y-117392857D01*
X156119047Y-117297619D01*
X156166666Y-117250000D01*
X156261904Y-117202380D01*
X157023809Y-118107142D02*
X157071428Y-118154761D01*
X157023809Y-118202380D01*
X156976190Y-118154761D01*
X157023809Y-118107142D01*
X157023809Y-118202380D01*
X158023809Y-118202380D02*
X157452380Y-118202380D01*
X157738095Y-118202380D02*
X157738095Y-117202380D01*
X157642857Y-117345238D01*
X157547619Y-117440476D01*
X157452380Y-117488095D01*
X158595238Y-117630952D02*
X158500000Y-117583333D01*
X158452380Y-117535714D01*
X158404761Y-117440476D01*
X158404761Y-117392857D01*
X158452380Y-117297619D01*
X158500000Y-117250000D01*
X158595238Y-117202380D01*
X158785714Y-117202380D01*
X158880952Y-117250000D01*
X158928571Y-117297619D01*
X158976190Y-117392857D01*
X158976190Y-117440476D01*
X158928571Y-117535714D01*
X158880952Y-117583333D01*
X158785714Y-117630952D01*
X158595238Y-117630952D01*
X158500000Y-117678571D01*
X158452380Y-117726190D01*
X158404761Y-117821428D01*
X158404761Y-118011904D01*
X158452380Y-118107142D01*
X158500000Y-118154761D01*
X158595238Y-118202380D01*
X158785714Y-118202380D01*
X158880952Y-118154761D01*
X158928571Y-118107142D01*
X158976190Y-118011904D01*
X158976190Y-117821428D01*
X158928571Y-117726190D01*
X158880952Y-117678571D01*
X158785714Y-117630952D01*
X155321428Y-102952380D02*
X155321428Y-101952380D01*
X155702380Y-101952380D01*
X155797619Y-102000000D01*
X155845238Y-102047619D01*
X155892857Y-102142857D01*
X155892857Y-102285714D01*
X155845238Y-102380952D01*
X155797619Y-102428571D01*
X155702380Y-102476190D01*
X155321428Y-102476190D01*
X156511904Y-101952380D02*
X156607142Y-101952380D01*
X156702380Y-102000000D01*
X156750000Y-102047619D01*
X156797619Y-102142857D01*
X156845238Y-102333333D01*
X156845238Y-102571428D01*
X156797619Y-102761904D01*
X156750000Y-102857142D01*
X156702380Y-102904761D01*
X156607142Y-102952380D01*
X156511904Y-102952380D01*
X156416666Y-102904761D01*
X156369047Y-102857142D01*
X156321428Y-102761904D01*
X156273809Y-102571428D01*
X156273809Y-102333333D01*
X156321428Y-102142857D01*
X156369047Y-102047619D01*
X156416666Y-102000000D01*
X156511904Y-101952380D01*
X157273809Y-102857142D02*
X157321428Y-102904761D01*
X157273809Y-102952380D01*
X157226190Y-102904761D01*
X157273809Y-102857142D01*
X157273809Y-102952380D01*
X157702380Y-102047619D02*
X157750000Y-102000000D01*
X157845238Y-101952380D01*
X158083333Y-101952380D01*
X158178571Y-102000000D01*
X158226190Y-102047619D01*
X158273809Y-102142857D01*
X158273809Y-102238095D01*
X158226190Y-102380952D01*
X157654761Y-102952380D01*
X158273809Y-102952380D01*
X158654761Y-102047619D02*
X158702380Y-102000000D01*
X158797619Y-101952380D01*
X159035714Y-101952380D01*
X159130952Y-102000000D01*
X159178571Y-102047619D01*
X159226190Y-102142857D01*
X159226190Y-102238095D01*
X159178571Y-102380952D01*
X158607142Y-102952380D01*
X159226190Y-102952380D01*
X154880952Y-105404761D02*
X155023809Y-105452380D01*
X155261904Y-105452380D01*
X155357142Y-105404761D01*
X155404761Y-105357142D01*
X155452380Y-105261904D01*
X155452380Y-105166666D01*
X155404761Y-105071428D01*
X155357142Y-105023809D01*
X155261904Y-104976190D01*
X155071428Y-104928571D01*
X154976190Y-104880952D01*
X154928571Y-104833333D01*
X154880952Y-104738095D01*
X154880952Y-104642857D01*
X154928571Y-104547619D01*
X154976190Y-104500000D01*
X155071428Y-104452380D01*
X155309523Y-104452380D01*
X155452380Y-104500000D01*
X155785714Y-104452380D02*
X156023809Y-105452380D01*
X156214285Y-104738095D01*
X156404761Y-105452380D01*
X156642857Y-104452380D01*
X157023809Y-105452380D02*
X157023809Y-104452380D01*
X157261904Y-104452380D01*
X157404761Y-104500000D01*
X157500000Y-104595238D01*
X157547619Y-104690476D01*
X157595238Y-104880952D01*
X157595238Y-105023809D01*
X157547619Y-105214285D01*
X157500000Y-105309523D01*
X157404761Y-105404761D01*
X157261904Y-105452380D01*
X157023809Y-105452380D01*
X158023809Y-105452380D02*
X158023809Y-104452380D01*
X158690476Y-104452380D02*
X158880952Y-104452380D01*
X158976190Y-104500000D01*
X159071428Y-104595238D01*
X159119047Y-104785714D01*
X159119047Y-105119047D01*
X159071428Y-105309523D01*
X158976190Y-105404761D01*
X158880952Y-105452380D01*
X158690476Y-105452380D01*
X158595238Y-105404761D01*
X158500000Y-105309523D01*
X158452380Y-105119047D01*
X158452380Y-104785714D01*
X158500000Y-104595238D01*
X158595238Y-104500000D01*
X158690476Y-104452380D01*
X155071428Y-128202380D02*
X155071428Y-127202380D01*
X155452380Y-127202380D01*
X155547619Y-127250000D01*
X155595238Y-127297619D01*
X155642857Y-127392857D01*
X155642857Y-127535714D01*
X155595238Y-127630952D01*
X155547619Y-127678571D01*
X155452380Y-127726190D01*
X155071428Y-127726190D01*
X156261904Y-127202380D02*
X156357142Y-127202380D01*
X156452380Y-127250000D01*
X156500000Y-127297619D01*
X156547619Y-127392857D01*
X156595238Y-127583333D01*
X156595238Y-127821428D01*
X156547619Y-128011904D01*
X156500000Y-128107142D01*
X156452380Y-128154761D01*
X156357142Y-128202380D01*
X156261904Y-128202380D01*
X156166666Y-128154761D01*
X156119047Y-128107142D01*
X156071428Y-128011904D01*
X156023809Y-127821428D01*
X156023809Y-127583333D01*
X156071428Y-127392857D01*
X156119047Y-127297619D01*
X156166666Y-127250000D01*
X156261904Y-127202380D01*
X157023809Y-128107142D02*
X157071428Y-128154761D01*
X157023809Y-128202380D01*
X156976190Y-128154761D01*
X157023809Y-128107142D01*
X157023809Y-128202380D01*
X158023809Y-128202380D02*
X157452380Y-128202380D01*
X157738095Y-128202380D02*
X157738095Y-127202380D01*
X157642857Y-127345238D01*
X157547619Y-127440476D01*
X157452380Y-127488095D01*
X158880952Y-127535714D02*
X158880952Y-128202380D01*
X158642857Y-127154761D02*
X158404761Y-127869047D01*
X159023809Y-127869047D01*
X155071428Y-130702380D02*
X155071428Y-129702380D01*
X155452380Y-129702380D01*
X155547619Y-129750000D01*
X155595238Y-129797619D01*
X155642857Y-129892857D01*
X155642857Y-130035714D01*
X155595238Y-130130952D01*
X155547619Y-130178571D01*
X155452380Y-130226190D01*
X155071428Y-130226190D01*
X156261904Y-129702380D02*
X156357142Y-129702380D01*
X156452380Y-129750000D01*
X156500000Y-129797619D01*
X156547619Y-129892857D01*
X156595238Y-130083333D01*
X156595238Y-130321428D01*
X156547619Y-130511904D01*
X156500000Y-130607142D01*
X156452380Y-130654761D01*
X156357142Y-130702380D01*
X156261904Y-130702380D01*
X156166666Y-130654761D01*
X156119047Y-130607142D01*
X156071428Y-130511904D01*
X156023809Y-130321428D01*
X156023809Y-130083333D01*
X156071428Y-129892857D01*
X156119047Y-129797619D01*
X156166666Y-129750000D01*
X156261904Y-129702380D01*
X157023809Y-130607142D02*
X157071428Y-130654761D01*
X157023809Y-130702380D01*
X156976190Y-130654761D01*
X157023809Y-130607142D01*
X157023809Y-130702380D01*
X158023809Y-130702380D02*
X157452380Y-130702380D01*
X157738095Y-130702380D02*
X157738095Y-129702380D01*
X157642857Y-129845238D01*
X157547619Y-129940476D01*
X157452380Y-129988095D01*
X158357142Y-129702380D02*
X158976190Y-129702380D01*
X158642857Y-130083333D01*
X158785714Y-130083333D01*
X158880952Y-130130952D01*
X158928571Y-130178571D01*
X158976190Y-130273809D01*
X158976190Y-130511904D01*
X158928571Y-130607142D01*
X158880952Y-130654761D01*
X158785714Y-130702380D01*
X158500000Y-130702380D01*
X158404761Y-130654761D01*
X158357142Y-130607142D01*
X155321428Y-115452380D02*
X155321428Y-114452380D01*
X155702380Y-114452380D01*
X155797619Y-114500000D01*
X155845238Y-114547619D01*
X155892857Y-114642857D01*
X155892857Y-114785714D01*
X155845238Y-114880952D01*
X155797619Y-114928571D01*
X155702380Y-114976190D01*
X155321428Y-114976190D01*
X156511904Y-114452380D02*
X156607142Y-114452380D01*
X156702380Y-114500000D01*
X156750000Y-114547619D01*
X156797619Y-114642857D01*
X156845238Y-114833333D01*
X156845238Y-115071428D01*
X156797619Y-115261904D01*
X156750000Y-115357142D01*
X156702380Y-115404761D01*
X156607142Y-115452380D01*
X156511904Y-115452380D01*
X156416666Y-115404761D01*
X156369047Y-115357142D01*
X156321428Y-115261904D01*
X156273809Y-115071428D01*
X156273809Y-114833333D01*
X156321428Y-114642857D01*
X156369047Y-114547619D01*
X156416666Y-114500000D01*
X156511904Y-114452380D01*
X157273809Y-115357142D02*
X157321428Y-115404761D01*
X157273809Y-115452380D01*
X157226190Y-115404761D01*
X157273809Y-115357142D01*
X157273809Y-115452380D01*
X158273809Y-115452380D02*
X157702380Y-115452380D01*
X157988095Y-115452380D02*
X157988095Y-114452380D01*
X157892857Y-114595238D01*
X157797619Y-114690476D01*
X157702380Y-114738095D01*
X158750000Y-115452380D02*
X158940476Y-115452380D01*
X159035714Y-115404761D01*
X159083333Y-115357142D01*
X159178571Y-115214285D01*
X159226190Y-115023809D01*
X159226190Y-114642857D01*
X159178571Y-114547619D01*
X159130952Y-114500000D01*
X159035714Y-114452380D01*
X158845238Y-114452380D01*
X158750000Y-114500000D01*
X158702380Y-114547619D01*
X158654761Y-114642857D01*
X158654761Y-114880952D01*
X158702380Y-114976190D01*
X158750000Y-115023809D01*
X158845238Y-115071428D01*
X159035714Y-115071428D01*
X159130952Y-115023809D01*
X159178571Y-114976190D01*
X159226190Y-114880952D01*
X155321428Y-112952380D02*
X155321428Y-111952380D01*
X155702380Y-111952380D01*
X155797619Y-112000000D01*
X155845238Y-112047619D01*
X155892857Y-112142857D01*
X155892857Y-112285714D01*
X155845238Y-112380952D01*
X155797619Y-112428571D01*
X155702380Y-112476190D01*
X155321428Y-112476190D01*
X156511904Y-111952380D02*
X156607142Y-111952380D01*
X156702380Y-112000000D01*
X156750000Y-112047619D01*
X156797619Y-112142857D01*
X156845238Y-112333333D01*
X156845238Y-112571428D01*
X156797619Y-112761904D01*
X156750000Y-112857142D01*
X156702380Y-112904761D01*
X156607142Y-112952380D01*
X156511904Y-112952380D01*
X156416666Y-112904761D01*
X156369047Y-112857142D01*
X156321428Y-112761904D01*
X156273809Y-112571428D01*
X156273809Y-112333333D01*
X156321428Y-112142857D01*
X156369047Y-112047619D01*
X156416666Y-112000000D01*
X156511904Y-111952380D01*
X157273809Y-112857142D02*
X157321428Y-112904761D01*
X157273809Y-112952380D01*
X157226190Y-112904761D01*
X157273809Y-112857142D01*
X157273809Y-112952380D01*
X157702380Y-112047619D02*
X157750000Y-112000000D01*
X157845238Y-111952380D01*
X158083333Y-111952380D01*
X158178571Y-112000000D01*
X158226190Y-112047619D01*
X158273809Y-112142857D01*
X158273809Y-112238095D01*
X158226190Y-112380952D01*
X157654761Y-112952380D01*
X158273809Y-112952380D01*
X158892857Y-111952380D02*
X158988095Y-111952380D01*
X159083333Y-112000000D01*
X159130952Y-112047619D01*
X159178571Y-112142857D01*
X159226190Y-112333333D01*
X159226190Y-112571428D01*
X159178571Y-112761904D01*
X159130952Y-112857142D01*
X159083333Y-112904761D01*
X158988095Y-112952380D01*
X158892857Y-112952380D01*
X158797619Y-112904761D01*
X158750000Y-112857142D01*
X158702380Y-112761904D01*
X158654761Y-112571428D01*
X158654761Y-112333333D01*
X158702380Y-112142857D01*
X158750000Y-112047619D01*
X158797619Y-112000000D01*
X158892857Y-111952380D01*
X155321428Y-110452380D02*
X155321428Y-109452380D01*
X155702380Y-109452380D01*
X155797619Y-109500000D01*
X155845238Y-109547619D01*
X155892857Y-109642857D01*
X155892857Y-109785714D01*
X155845238Y-109880952D01*
X155797619Y-109928571D01*
X155702380Y-109976190D01*
X155321428Y-109976190D01*
X156511904Y-109452380D02*
X156607142Y-109452380D01*
X156702380Y-109500000D01*
X156750000Y-109547619D01*
X156797619Y-109642857D01*
X156845238Y-109833333D01*
X156845238Y-110071428D01*
X156797619Y-110261904D01*
X156750000Y-110357142D01*
X156702380Y-110404761D01*
X156607142Y-110452380D01*
X156511904Y-110452380D01*
X156416666Y-110404761D01*
X156369047Y-110357142D01*
X156321428Y-110261904D01*
X156273809Y-110071428D01*
X156273809Y-109833333D01*
X156321428Y-109642857D01*
X156369047Y-109547619D01*
X156416666Y-109500000D01*
X156511904Y-109452380D01*
X157273809Y-110357142D02*
X157321428Y-110404761D01*
X157273809Y-110452380D01*
X157226190Y-110404761D01*
X157273809Y-110357142D01*
X157273809Y-110452380D01*
X157702380Y-109547619D02*
X157750000Y-109500000D01*
X157845238Y-109452380D01*
X158083333Y-109452380D01*
X158178571Y-109500000D01*
X158226190Y-109547619D01*
X158273809Y-109642857D01*
X158273809Y-109738095D01*
X158226190Y-109880952D01*
X157654761Y-110452380D01*
X158273809Y-110452380D01*
X159226190Y-110452380D02*
X158654761Y-110452380D01*
X158940476Y-110452380D02*
X158940476Y-109452380D01*
X158845238Y-109595238D01*
X158750000Y-109690476D01*
X158654761Y-109738095D01*
X146071428Y-143452380D02*
X146071428Y-142452380D01*
X146452380Y-142452380D01*
X146547619Y-142500000D01*
X146595238Y-142547619D01*
X146642857Y-142642857D01*
X146642857Y-142785714D01*
X146595238Y-142880952D01*
X146547619Y-142928571D01*
X146452380Y-142976190D01*
X146071428Y-142976190D01*
X147261904Y-142452380D02*
X147357142Y-142452380D01*
X147452380Y-142500000D01*
X147500000Y-142547619D01*
X147547619Y-142642857D01*
X147595238Y-142833333D01*
X147595238Y-143071428D01*
X147547619Y-143261904D01*
X147500000Y-143357142D01*
X147452380Y-143404761D01*
X147357142Y-143452380D01*
X147261904Y-143452380D01*
X147166666Y-143404761D01*
X147119047Y-143357142D01*
X147071428Y-143261904D01*
X147023809Y-143071428D01*
X147023809Y-142833333D01*
X147071428Y-142642857D01*
X147119047Y-142547619D01*
X147166666Y-142500000D01*
X147261904Y-142452380D01*
X148023809Y-143357142D02*
X148071428Y-143404761D01*
X148023809Y-143452380D01*
X147976190Y-143404761D01*
X148023809Y-143357142D01*
X148023809Y-143452380D01*
X148690476Y-142452380D02*
X148785714Y-142452380D01*
X148880952Y-142500000D01*
X148928571Y-142547619D01*
X148976190Y-142642857D01*
X149023809Y-142833333D01*
X149023809Y-143071428D01*
X148976190Y-143261904D01*
X148928571Y-143357142D01*
X148880952Y-143404761D01*
X148785714Y-143452380D01*
X148690476Y-143452380D01*
X148595238Y-143404761D01*
X148547619Y-143357142D01*
X148500000Y-143261904D01*
X148452380Y-143071428D01*
X148452380Y-142833333D01*
X148500000Y-142642857D01*
X148547619Y-142547619D01*
X148595238Y-142500000D01*
X148690476Y-142452380D01*
X149357142Y-142452380D02*
X150023809Y-142452380D01*
X149595238Y-143452380D01*
X146071428Y-140952380D02*
X146071428Y-139952380D01*
X146452380Y-139952380D01*
X146547619Y-140000000D01*
X146595238Y-140047619D01*
X146642857Y-140142857D01*
X146642857Y-140285714D01*
X146595238Y-140380952D01*
X146547619Y-140428571D01*
X146452380Y-140476190D01*
X146071428Y-140476190D01*
X147261904Y-139952380D02*
X147357142Y-139952380D01*
X147452380Y-140000000D01*
X147500000Y-140047619D01*
X147547619Y-140142857D01*
X147595238Y-140333333D01*
X147595238Y-140571428D01*
X147547619Y-140761904D01*
X147500000Y-140857142D01*
X147452380Y-140904761D01*
X147357142Y-140952380D01*
X147261904Y-140952380D01*
X147166666Y-140904761D01*
X147119047Y-140857142D01*
X147071428Y-140761904D01*
X147023809Y-140571428D01*
X147023809Y-140333333D01*
X147071428Y-140142857D01*
X147119047Y-140047619D01*
X147166666Y-140000000D01*
X147261904Y-139952380D01*
X148023809Y-140857142D02*
X148071428Y-140904761D01*
X148023809Y-140952380D01*
X147976190Y-140904761D01*
X148023809Y-140857142D01*
X148023809Y-140952380D01*
X148690476Y-139952380D02*
X148785714Y-139952380D01*
X148880952Y-140000000D01*
X148928571Y-140047619D01*
X148976190Y-140142857D01*
X149023809Y-140333333D01*
X149023809Y-140571428D01*
X148976190Y-140761904D01*
X148928571Y-140857142D01*
X148880952Y-140904761D01*
X148785714Y-140952380D01*
X148690476Y-140952380D01*
X148595238Y-140904761D01*
X148547619Y-140857142D01*
X148500000Y-140761904D01*
X148452380Y-140571428D01*
X148452380Y-140333333D01*
X148500000Y-140142857D01*
X148547619Y-140047619D01*
X148595238Y-140000000D01*
X148690476Y-139952380D01*
X149880952Y-139952380D02*
X149690476Y-139952380D01*
X149595238Y-140000000D01*
X149547619Y-140047619D01*
X149452380Y-140190476D01*
X149404761Y-140380952D01*
X149404761Y-140761904D01*
X149452380Y-140857142D01*
X149500000Y-140904761D01*
X149595238Y-140952380D01*
X149785714Y-140952380D01*
X149880952Y-140904761D01*
X149928571Y-140857142D01*
X149976190Y-140761904D01*
X149976190Y-140523809D01*
X149928571Y-140428571D01*
X149880952Y-140380952D01*
X149785714Y-140333333D01*
X149595238Y-140333333D01*
X149500000Y-140380952D01*
X149452380Y-140428571D01*
X149404761Y-140523809D01*
X146071428Y-138452380D02*
X146071428Y-137452380D01*
X146452380Y-137452380D01*
X146547619Y-137500000D01*
X146595238Y-137547619D01*
X146642857Y-137642857D01*
X146642857Y-137785714D01*
X146595238Y-137880952D01*
X146547619Y-137928571D01*
X146452380Y-137976190D01*
X146071428Y-137976190D01*
X147261904Y-137452380D02*
X147357142Y-137452380D01*
X147452380Y-137500000D01*
X147500000Y-137547619D01*
X147547619Y-137642857D01*
X147595238Y-137833333D01*
X147595238Y-138071428D01*
X147547619Y-138261904D01*
X147500000Y-138357142D01*
X147452380Y-138404761D01*
X147357142Y-138452380D01*
X147261904Y-138452380D01*
X147166666Y-138404761D01*
X147119047Y-138357142D01*
X147071428Y-138261904D01*
X147023809Y-138071428D01*
X147023809Y-137833333D01*
X147071428Y-137642857D01*
X147119047Y-137547619D01*
X147166666Y-137500000D01*
X147261904Y-137452380D01*
X148023809Y-138357142D02*
X148071428Y-138404761D01*
X148023809Y-138452380D01*
X147976190Y-138404761D01*
X148023809Y-138357142D01*
X148023809Y-138452380D01*
X148690476Y-137452380D02*
X148785714Y-137452380D01*
X148880952Y-137500000D01*
X148928571Y-137547619D01*
X148976190Y-137642857D01*
X149023809Y-137833333D01*
X149023809Y-138071428D01*
X148976190Y-138261904D01*
X148928571Y-138357142D01*
X148880952Y-138404761D01*
X148785714Y-138452380D01*
X148690476Y-138452380D01*
X148595238Y-138404761D01*
X148547619Y-138357142D01*
X148500000Y-138261904D01*
X148452380Y-138071428D01*
X148452380Y-137833333D01*
X148500000Y-137642857D01*
X148547619Y-137547619D01*
X148595238Y-137500000D01*
X148690476Y-137452380D01*
X149928571Y-137452380D02*
X149452380Y-137452380D01*
X149404761Y-137928571D01*
X149452380Y-137880952D01*
X149547619Y-137833333D01*
X149785714Y-137833333D01*
X149880952Y-137880952D01*
X149928571Y-137928571D01*
X149976190Y-138023809D01*
X149976190Y-138261904D01*
X149928571Y-138357142D01*
X149880952Y-138404761D01*
X149785714Y-138452380D01*
X149547619Y-138452380D01*
X149452380Y-138404761D01*
X149404761Y-138357142D01*
X146071428Y-135702380D02*
X146071428Y-134702380D01*
X146452380Y-134702380D01*
X146547619Y-134750000D01*
X146595238Y-134797619D01*
X146642857Y-134892857D01*
X146642857Y-135035714D01*
X146595238Y-135130952D01*
X146547619Y-135178571D01*
X146452380Y-135226190D01*
X146071428Y-135226190D01*
X147261904Y-134702380D02*
X147357142Y-134702380D01*
X147452380Y-134750000D01*
X147500000Y-134797619D01*
X147547619Y-134892857D01*
X147595238Y-135083333D01*
X147595238Y-135321428D01*
X147547619Y-135511904D01*
X147500000Y-135607142D01*
X147452380Y-135654761D01*
X147357142Y-135702380D01*
X147261904Y-135702380D01*
X147166666Y-135654761D01*
X147119047Y-135607142D01*
X147071428Y-135511904D01*
X147023809Y-135321428D01*
X147023809Y-135083333D01*
X147071428Y-134892857D01*
X147119047Y-134797619D01*
X147166666Y-134750000D01*
X147261904Y-134702380D01*
X148023809Y-135607142D02*
X148071428Y-135654761D01*
X148023809Y-135702380D01*
X147976190Y-135654761D01*
X148023809Y-135607142D01*
X148023809Y-135702380D01*
X148690476Y-134702380D02*
X148785714Y-134702380D01*
X148880952Y-134750000D01*
X148928571Y-134797619D01*
X148976190Y-134892857D01*
X149023809Y-135083333D01*
X149023809Y-135321428D01*
X148976190Y-135511904D01*
X148928571Y-135607142D01*
X148880952Y-135654761D01*
X148785714Y-135702380D01*
X148690476Y-135702380D01*
X148595238Y-135654761D01*
X148547619Y-135607142D01*
X148500000Y-135511904D01*
X148452380Y-135321428D01*
X148452380Y-135083333D01*
X148500000Y-134892857D01*
X148547619Y-134797619D01*
X148595238Y-134750000D01*
X148690476Y-134702380D01*
X149880952Y-135035714D02*
X149880952Y-135702380D01*
X149642857Y-134654761D02*
X149404761Y-135369047D01*
X150023809Y-135369047D01*
X146071428Y-133202380D02*
X146071428Y-132202380D01*
X146452380Y-132202380D01*
X146547619Y-132250000D01*
X146595238Y-132297619D01*
X146642857Y-132392857D01*
X146642857Y-132535714D01*
X146595238Y-132630952D01*
X146547619Y-132678571D01*
X146452380Y-132726190D01*
X146071428Y-132726190D01*
X147261904Y-132202380D02*
X147357142Y-132202380D01*
X147452380Y-132250000D01*
X147500000Y-132297619D01*
X147547619Y-132392857D01*
X147595238Y-132583333D01*
X147595238Y-132821428D01*
X147547619Y-133011904D01*
X147500000Y-133107142D01*
X147452380Y-133154761D01*
X147357142Y-133202380D01*
X147261904Y-133202380D01*
X147166666Y-133154761D01*
X147119047Y-133107142D01*
X147071428Y-133011904D01*
X147023809Y-132821428D01*
X147023809Y-132583333D01*
X147071428Y-132392857D01*
X147119047Y-132297619D01*
X147166666Y-132250000D01*
X147261904Y-132202380D01*
X148023809Y-133107142D02*
X148071428Y-133154761D01*
X148023809Y-133202380D01*
X147976190Y-133154761D01*
X148023809Y-133107142D01*
X148023809Y-133202380D01*
X148690476Y-132202380D02*
X148785714Y-132202380D01*
X148880952Y-132250000D01*
X148928571Y-132297619D01*
X148976190Y-132392857D01*
X149023809Y-132583333D01*
X149023809Y-132821428D01*
X148976190Y-133011904D01*
X148928571Y-133107142D01*
X148880952Y-133154761D01*
X148785714Y-133202380D01*
X148690476Y-133202380D01*
X148595238Y-133154761D01*
X148547619Y-133107142D01*
X148500000Y-133011904D01*
X148452380Y-132821428D01*
X148452380Y-132583333D01*
X148500000Y-132392857D01*
X148547619Y-132297619D01*
X148595238Y-132250000D01*
X148690476Y-132202380D01*
X149357142Y-132202380D02*
X149976190Y-132202380D01*
X149642857Y-132583333D01*
X149785714Y-132583333D01*
X149880952Y-132630952D01*
X149928571Y-132678571D01*
X149976190Y-132773809D01*
X149976190Y-133011904D01*
X149928571Y-133107142D01*
X149880952Y-133154761D01*
X149785714Y-133202380D01*
X149500000Y-133202380D01*
X149404761Y-133154761D01*
X149357142Y-133107142D01*
X146071428Y-130702380D02*
X146071428Y-129702380D01*
X146452380Y-129702380D01*
X146547619Y-129750000D01*
X146595238Y-129797619D01*
X146642857Y-129892857D01*
X146642857Y-130035714D01*
X146595238Y-130130952D01*
X146547619Y-130178571D01*
X146452380Y-130226190D01*
X146071428Y-130226190D01*
X147261904Y-129702380D02*
X147357142Y-129702380D01*
X147452380Y-129750000D01*
X147500000Y-129797619D01*
X147547619Y-129892857D01*
X147595238Y-130083333D01*
X147595238Y-130321428D01*
X147547619Y-130511904D01*
X147500000Y-130607142D01*
X147452380Y-130654761D01*
X147357142Y-130702380D01*
X147261904Y-130702380D01*
X147166666Y-130654761D01*
X147119047Y-130607142D01*
X147071428Y-130511904D01*
X147023809Y-130321428D01*
X147023809Y-130083333D01*
X147071428Y-129892857D01*
X147119047Y-129797619D01*
X147166666Y-129750000D01*
X147261904Y-129702380D01*
X148023809Y-130607142D02*
X148071428Y-130654761D01*
X148023809Y-130702380D01*
X147976190Y-130654761D01*
X148023809Y-130607142D01*
X148023809Y-130702380D01*
X148690476Y-129702380D02*
X148785714Y-129702380D01*
X148880952Y-129750000D01*
X148928571Y-129797619D01*
X148976190Y-129892857D01*
X149023809Y-130083333D01*
X149023809Y-130321428D01*
X148976190Y-130511904D01*
X148928571Y-130607142D01*
X148880952Y-130654761D01*
X148785714Y-130702380D01*
X148690476Y-130702380D01*
X148595238Y-130654761D01*
X148547619Y-130607142D01*
X148500000Y-130511904D01*
X148452380Y-130321428D01*
X148452380Y-130083333D01*
X148500000Y-129892857D01*
X148547619Y-129797619D01*
X148595238Y-129750000D01*
X148690476Y-129702380D01*
X149404761Y-129797619D02*
X149452380Y-129750000D01*
X149547619Y-129702380D01*
X149785714Y-129702380D01*
X149880952Y-129750000D01*
X149928571Y-129797619D01*
X149976190Y-129892857D01*
X149976190Y-129988095D01*
X149928571Y-130130952D01*
X149357142Y-130702380D01*
X149976190Y-130702380D01*
X146166666Y-127202380D02*
X146500000Y-128202380D01*
X146833333Y-127202380D01*
X147738095Y-128107142D02*
X147690476Y-128154761D01*
X147547619Y-128202380D01*
X147452380Y-128202380D01*
X147309523Y-128154761D01*
X147214285Y-128059523D01*
X147166666Y-127964285D01*
X147119047Y-127773809D01*
X147119047Y-127630952D01*
X147166666Y-127440476D01*
X147214285Y-127345238D01*
X147309523Y-127250000D01*
X147452380Y-127202380D01*
X147547619Y-127202380D01*
X147690476Y-127250000D01*
X147738095Y-127297619D01*
X148738095Y-128107142D02*
X148690476Y-128154761D01*
X148547619Y-128202380D01*
X148452380Y-128202380D01*
X148309523Y-128154761D01*
X148214285Y-128059523D01*
X148166666Y-127964285D01*
X148119047Y-127773809D01*
X148119047Y-127630952D01*
X148166666Y-127440476D01*
X148214285Y-127345238D01*
X148309523Y-127250000D01*
X148452380Y-127202380D01*
X148547619Y-127202380D01*
X148690476Y-127250000D01*
X148738095Y-127297619D01*
X146738095Y-124750000D02*
X146642857Y-124702380D01*
X146500000Y-124702380D01*
X146357142Y-124750000D01*
X146261904Y-124845238D01*
X146214285Y-124940476D01*
X146166666Y-125130952D01*
X146166666Y-125273809D01*
X146214285Y-125464285D01*
X146261904Y-125559523D01*
X146357142Y-125654761D01*
X146500000Y-125702380D01*
X146595238Y-125702380D01*
X146738095Y-125654761D01*
X146785714Y-125607142D01*
X146785714Y-125273809D01*
X146595238Y-125273809D01*
X147214285Y-125702380D02*
X147214285Y-124702380D01*
X147785714Y-125702380D01*
X147785714Y-124702380D01*
X148261904Y-125702380D02*
X148261904Y-124702380D01*
X148500000Y-124702380D01*
X148642857Y-124750000D01*
X148738095Y-124845238D01*
X148785714Y-124940476D01*
X148833333Y-125130952D01*
X148833333Y-125273809D01*
X148785714Y-125464285D01*
X148738095Y-125559523D01*
X148642857Y-125654761D01*
X148500000Y-125702380D01*
X148261904Y-125702380D01*
X146309523Y-123202380D02*
X146309523Y-122202380D01*
X146547619Y-122202380D01*
X146690476Y-122250000D01*
X146785714Y-122345238D01*
X146833333Y-122440476D01*
X146880952Y-122630952D01*
X146880952Y-122773809D01*
X146833333Y-122964285D01*
X146785714Y-123059523D01*
X146690476Y-123154761D01*
X146547619Y-123202380D01*
X146309523Y-123202380D01*
X147309523Y-122678571D02*
X147642857Y-122678571D01*
X147785714Y-123202380D02*
X147309523Y-123202380D01*
X147309523Y-122202380D01*
X147785714Y-122202380D01*
X148785714Y-123107142D02*
X148738095Y-123154761D01*
X148595238Y-123202380D01*
X148500000Y-123202380D01*
X148357142Y-123154761D01*
X148261904Y-123059523D01*
X148214285Y-122964285D01*
X148166666Y-122773809D01*
X148166666Y-122630952D01*
X148214285Y-122440476D01*
X148261904Y-122345238D01*
X148357142Y-122250000D01*
X148500000Y-122202380D01*
X148595238Y-122202380D01*
X148738095Y-122250000D01*
X148785714Y-122297619D01*
X149738095Y-123202380D02*
X149166666Y-123202380D01*
X149452380Y-123202380D02*
X149452380Y-122202380D01*
X149357142Y-122345238D01*
X149261904Y-122440476D01*
X149166666Y-122488095D01*
X146238095Y-120702380D02*
X146238095Y-119702380D01*
X146476190Y-119702380D01*
X146619047Y-119750000D01*
X146714285Y-119845238D01*
X146761904Y-119940476D01*
X146809523Y-120130952D01*
X146809523Y-120273809D01*
X146761904Y-120464285D01*
X146714285Y-120559523D01*
X146619047Y-120654761D01*
X146476190Y-120702380D01*
X146238095Y-120702380D01*
X147809523Y-120607142D02*
X147761904Y-120654761D01*
X147619047Y-120702380D01*
X147523809Y-120702380D01*
X147380952Y-120654761D01*
X147285714Y-120559523D01*
X147238095Y-120464285D01*
X147190476Y-120273809D01*
X147190476Y-120130952D01*
X147238095Y-119940476D01*
X147285714Y-119845238D01*
X147380952Y-119750000D01*
X147523809Y-119702380D01*
X147619047Y-119702380D01*
X147761904Y-119750000D01*
X147809523Y-119797619D01*
X148809523Y-120607142D02*
X148761904Y-120654761D01*
X148619047Y-120702380D01*
X148523809Y-120702380D01*
X148380952Y-120654761D01*
X148285714Y-120559523D01*
X148238095Y-120464285D01*
X148190476Y-120273809D01*
X148190476Y-120130952D01*
X148238095Y-119940476D01*
X148285714Y-119845238D01*
X148380952Y-119750000D01*
X148523809Y-119702380D01*
X148619047Y-119702380D01*
X148761904Y-119750000D01*
X148809523Y-119797619D01*
X146309523Y-118202380D02*
X146309523Y-117202380D01*
X146547619Y-117202380D01*
X146690476Y-117250000D01*
X146785714Y-117345238D01*
X146833333Y-117440476D01*
X146880952Y-117630952D01*
X146880952Y-117773809D01*
X146833333Y-117964285D01*
X146785714Y-118059523D01*
X146690476Y-118154761D01*
X146547619Y-118202380D01*
X146309523Y-118202380D01*
X147309523Y-117678571D02*
X147642857Y-117678571D01*
X147785714Y-118202380D02*
X147309523Y-118202380D01*
X147309523Y-117202380D01*
X147785714Y-117202380D01*
X148785714Y-118107142D02*
X148738095Y-118154761D01*
X148595238Y-118202380D01*
X148500000Y-118202380D01*
X148357142Y-118154761D01*
X148261904Y-118059523D01*
X148214285Y-117964285D01*
X148166666Y-117773809D01*
X148166666Y-117630952D01*
X148214285Y-117440476D01*
X148261904Y-117345238D01*
X148357142Y-117250000D01*
X148500000Y-117202380D01*
X148595238Y-117202380D01*
X148738095Y-117250000D01*
X148785714Y-117297619D01*
X149642857Y-117535714D02*
X149642857Y-118202380D01*
X149404761Y-117154761D02*
X149166666Y-117869047D01*
X149785714Y-117869047D01*
X146321428Y-115452380D02*
X146321428Y-114452380D01*
X146702380Y-114452380D01*
X146797619Y-114500000D01*
X146845238Y-114547619D01*
X146892857Y-114642857D01*
X146892857Y-114785714D01*
X146845238Y-114880952D01*
X146797619Y-114928571D01*
X146702380Y-114976190D01*
X146321428Y-114976190D01*
X147511904Y-114452380D02*
X147607142Y-114452380D01*
X147702380Y-114500000D01*
X147750000Y-114547619D01*
X147797619Y-114642857D01*
X147845238Y-114833333D01*
X147845238Y-115071428D01*
X147797619Y-115261904D01*
X147750000Y-115357142D01*
X147702380Y-115404761D01*
X147607142Y-115452380D01*
X147511904Y-115452380D01*
X147416666Y-115404761D01*
X147369047Y-115357142D01*
X147321428Y-115261904D01*
X147273809Y-115071428D01*
X147273809Y-114833333D01*
X147321428Y-114642857D01*
X147369047Y-114547619D01*
X147416666Y-114500000D01*
X147511904Y-114452380D01*
X148273809Y-115357142D02*
X148321428Y-115404761D01*
X148273809Y-115452380D01*
X148226190Y-115404761D01*
X148273809Y-115357142D01*
X148273809Y-115452380D01*
X148654761Y-114452380D02*
X149273809Y-114452380D01*
X148940476Y-114833333D01*
X149083333Y-114833333D01*
X149178571Y-114880952D01*
X149226190Y-114928571D01*
X149273809Y-115023809D01*
X149273809Y-115261904D01*
X149226190Y-115357142D01*
X149178571Y-115404761D01*
X149083333Y-115452380D01*
X148797619Y-115452380D01*
X148702380Y-115404761D01*
X148654761Y-115357142D01*
X150226190Y-115452380D02*
X149654761Y-115452380D01*
X149940476Y-115452380D02*
X149940476Y-114452380D01*
X149845238Y-114595238D01*
X149750000Y-114690476D01*
X149654761Y-114738095D01*
X146321428Y-112952380D02*
X146321428Y-111952380D01*
X146702380Y-111952380D01*
X146797619Y-112000000D01*
X146845238Y-112047619D01*
X146892857Y-112142857D01*
X146892857Y-112285714D01*
X146845238Y-112380952D01*
X146797619Y-112428571D01*
X146702380Y-112476190D01*
X146321428Y-112476190D01*
X147511904Y-111952380D02*
X147607142Y-111952380D01*
X147702380Y-112000000D01*
X147750000Y-112047619D01*
X147797619Y-112142857D01*
X147845238Y-112333333D01*
X147845238Y-112571428D01*
X147797619Y-112761904D01*
X147750000Y-112857142D01*
X147702380Y-112904761D01*
X147607142Y-112952380D01*
X147511904Y-112952380D01*
X147416666Y-112904761D01*
X147369047Y-112857142D01*
X147321428Y-112761904D01*
X147273809Y-112571428D01*
X147273809Y-112333333D01*
X147321428Y-112142857D01*
X147369047Y-112047619D01*
X147416666Y-112000000D01*
X147511904Y-111952380D01*
X148273809Y-112857142D02*
X148321428Y-112904761D01*
X148273809Y-112952380D01*
X148226190Y-112904761D01*
X148273809Y-112857142D01*
X148273809Y-112952380D01*
X148654761Y-111952380D02*
X149273809Y-111952380D01*
X148940476Y-112333333D01*
X149083333Y-112333333D01*
X149178571Y-112380952D01*
X149226190Y-112428571D01*
X149273809Y-112523809D01*
X149273809Y-112761904D01*
X149226190Y-112857142D01*
X149178571Y-112904761D01*
X149083333Y-112952380D01*
X148797619Y-112952380D01*
X148702380Y-112904761D01*
X148654761Y-112857142D01*
X149892857Y-111952380D02*
X149988095Y-111952380D01*
X150083333Y-112000000D01*
X150130952Y-112047619D01*
X150178571Y-112142857D01*
X150226190Y-112333333D01*
X150226190Y-112571428D01*
X150178571Y-112761904D01*
X150130952Y-112857142D01*
X150083333Y-112904761D01*
X149988095Y-112952380D01*
X149892857Y-112952380D01*
X149797619Y-112904761D01*
X149750000Y-112857142D01*
X149702380Y-112761904D01*
X149654761Y-112571428D01*
X149654761Y-112333333D01*
X149702380Y-112142857D01*
X149750000Y-112047619D01*
X149797619Y-112000000D01*
X149892857Y-111952380D01*
X146321428Y-110452380D02*
X146321428Y-109452380D01*
X146702380Y-109452380D01*
X146797619Y-109500000D01*
X146845238Y-109547619D01*
X146892857Y-109642857D01*
X146892857Y-109785714D01*
X146845238Y-109880952D01*
X146797619Y-109928571D01*
X146702380Y-109976190D01*
X146321428Y-109976190D01*
X147511904Y-109452380D02*
X147607142Y-109452380D01*
X147702380Y-109500000D01*
X147750000Y-109547619D01*
X147797619Y-109642857D01*
X147845238Y-109833333D01*
X147845238Y-110071428D01*
X147797619Y-110261904D01*
X147750000Y-110357142D01*
X147702380Y-110404761D01*
X147607142Y-110452380D01*
X147511904Y-110452380D01*
X147416666Y-110404761D01*
X147369047Y-110357142D01*
X147321428Y-110261904D01*
X147273809Y-110071428D01*
X147273809Y-109833333D01*
X147321428Y-109642857D01*
X147369047Y-109547619D01*
X147416666Y-109500000D01*
X147511904Y-109452380D01*
X148273809Y-110357142D02*
X148321428Y-110404761D01*
X148273809Y-110452380D01*
X148226190Y-110404761D01*
X148273809Y-110357142D01*
X148273809Y-110452380D01*
X148702380Y-109547619D02*
X148750000Y-109500000D01*
X148845238Y-109452380D01*
X149083333Y-109452380D01*
X149178571Y-109500000D01*
X149226190Y-109547619D01*
X149273809Y-109642857D01*
X149273809Y-109738095D01*
X149226190Y-109880952D01*
X148654761Y-110452380D01*
X149273809Y-110452380D01*
X149750000Y-110452380D02*
X149940476Y-110452380D01*
X150035714Y-110404761D01*
X150083333Y-110357142D01*
X150178571Y-110214285D01*
X150226190Y-110023809D01*
X150226190Y-109642857D01*
X150178571Y-109547619D01*
X150130952Y-109500000D01*
X150035714Y-109452380D01*
X149845238Y-109452380D01*
X149750000Y-109500000D01*
X149702380Y-109547619D01*
X149654761Y-109642857D01*
X149654761Y-109880952D01*
X149702380Y-109976190D01*
X149750000Y-110023809D01*
X149845238Y-110071428D01*
X150035714Y-110071428D01*
X150130952Y-110023809D01*
X150178571Y-109976190D01*
X150226190Y-109880952D01*
X146321428Y-107952380D02*
X146321428Y-106952380D01*
X146702380Y-106952380D01*
X146797619Y-107000000D01*
X146845238Y-107047619D01*
X146892857Y-107142857D01*
X146892857Y-107285714D01*
X146845238Y-107380952D01*
X146797619Y-107428571D01*
X146702380Y-107476190D01*
X146321428Y-107476190D01*
X147511904Y-106952380D02*
X147607142Y-106952380D01*
X147702380Y-107000000D01*
X147750000Y-107047619D01*
X147797619Y-107142857D01*
X147845238Y-107333333D01*
X147845238Y-107571428D01*
X147797619Y-107761904D01*
X147750000Y-107857142D01*
X147702380Y-107904761D01*
X147607142Y-107952380D01*
X147511904Y-107952380D01*
X147416666Y-107904761D01*
X147369047Y-107857142D01*
X147321428Y-107761904D01*
X147273809Y-107571428D01*
X147273809Y-107333333D01*
X147321428Y-107142857D01*
X147369047Y-107047619D01*
X147416666Y-107000000D01*
X147511904Y-106952380D01*
X148273809Y-107857142D02*
X148321428Y-107904761D01*
X148273809Y-107952380D01*
X148226190Y-107904761D01*
X148273809Y-107857142D01*
X148273809Y-107952380D01*
X148702380Y-107047619D02*
X148750000Y-107000000D01*
X148845238Y-106952380D01*
X149083333Y-106952380D01*
X149178571Y-107000000D01*
X149226190Y-107047619D01*
X149273809Y-107142857D01*
X149273809Y-107238095D01*
X149226190Y-107380952D01*
X148654761Y-107952380D01*
X149273809Y-107952380D01*
X149845238Y-107380952D02*
X149750000Y-107333333D01*
X149702380Y-107285714D01*
X149654761Y-107190476D01*
X149654761Y-107142857D01*
X149702380Y-107047619D01*
X149750000Y-107000000D01*
X149845238Y-106952380D01*
X150035714Y-106952380D01*
X150130952Y-107000000D01*
X150178571Y-107047619D01*
X150226190Y-107142857D01*
X150226190Y-107190476D01*
X150178571Y-107285714D01*
X150130952Y-107333333D01*
X150035714Y-107380952D01*
X149845238Y-107380952D01*
X149750000Y-107428571D01*
X149702380Y-107476190D01*
X149654761Y-107571428D01*
X149654761Y-107761904D01*
X149702380Y-107857142D01*
X149750000Y-107904761D01*
X149845238Y-107952380D01*
X150035714Y-107952380D01*
X150130952Y-107904761D01*
X150178571Y-107857142D01*
X150226190Y-107761904D01*
X150226190Y-107571428D01*
X150178571Y-107476190D01*
X150130952Y-107428571D01*
X150035714Y-107380952D01*
X146321428Y-105452380D02*
X146321428Y-104452380D01*
X146702380Y-104452380D01*
X146797619Y-104500000D01*
X146845238Y-104547619D01*
X146892857Y-104642857D01*
X146892857Y-104785714D01*
X146845238Y-104880952D01*
X146797619Y-104928571D01*
X146702380Y-104976190D01*
X146321428Y-104976190D01*
X147511904Y-104452380D02*
X147607142Y-104452380D01*
X147702380Y-104500000D01*
X147750000Y-104547619D01*
X147797619Y-104642857D01*
X147845238Y-104833333D01*
X147845238Y-105071428D01*
X147797619Y-105261904D01*
X147750000Y-105357142D01*
X147702380Y-105404761D01*
X147607142Y-105452380D01*
X147511904Y-105452380D01*
X147416666Y-105404761D01*
X147369047Y-105357142D01*
X147321428Y-105261904D01*
X147273809Y-105071428D01*
X147273809Y-104833333D01*
X147321428Y-104642857D01*
X147369047Y-104547619D01*
X147416666Y-104500000D01*
X147511904Y-104452380D01*
X148273809Y-105357142D02*
X148321428Y-105404761D01*
X148273809Y-105452380D01*
X148226190Y-105404761D01*
X148273809Y-105357142D01*
X148273809Y-105452380D01*
X148702380Y-104547619D02*
X148750000Y-104500000D01*
X148845238Y-104452380D01*
X149083333Y-104452380D01*
X149178571Y-104500000D01*
X149226190Y-104547619D01*
X149273809Y-104642857D01*
X149273809Y-104738095D01*
X149226190Y-104880952D01*
X148654761Y-105452380D01*
X149273809Y-105452380D01*
X149607142Y-104452380D02*
X150273809Y-104452380D01*
X149845238Y-105452380D01*
X146309523Y-95202380D02*
X146309523Y-94202380D01*
X146547619Y-94202380D01*
X146690476Y-94250000D01*
X146785714Y-94345238D01*
X146833333Y-94440476D01*
X146880952Y-94630952D01*
X146880952Y-94773809D01*
X146833333Y-94964285D01*
X146785714Y-95059523D01*
X146690476Y-95154761D01*
X146547619Y-95202380D01*
X146309523Y-95202380D01*
X147309523Y-94678571D02*
X147642857Y-94678571D01*
X147785714Y-95202380D02*
X147309523Y-95202380D01*
X147309523Y-94202380D01*
X147785714Y-94202380D01*
X148785714Y-95107142D02*
X148738095Y-95154761D01*
X148595238Y-95202380D01*
X148500000Y-95202380D01*
X148357142Y-95154761D01*
X148261904Y-95059523D01*
X148214285Y-94964285D01*
X148166666Y-94773809D01*
X148166666Y-94630952D01*
X148214285Y-94440476D01*
X148261904Y-94345238D01*
X148357142Y-94250000D01*
X148500000Y-94202380D01*
X148595238Y-94202380D01*
X148738095Y-94250000D01*
X148785714Y-94297619D01*
X149166666Y-94297619D02*
X149214285Y-94250000D01*
X149309523Y-94202380D01*
X149547619Y-94202380D01*
X149642857Y-94250000D01*
X149690476Y-94297619D01*
X149738095Y-94392857D01*
X149738095Y-94488095D01*
X149690476Y-94630952D01*
X149119047Y-95202380D01*
X149738095Y-95202380D01*
X146309523Y-97702380D02*
X146309523Y-96702380D01*
X146547619Y-96702380D01*
X146690476Y-96750000D01*
X146785714Y-96845238D01*
X146833333Y-96940476D01*
X146880952Y-97130952D01*
X146880952Y-97273809D01*
X146833333Y-97464285D01*
X146785714Y-97559523D01*
X146690476Y-97654761D01*
X146547619Y-97702380D01*
X146309523Y-97702380D01*
X147309523Y-97178571D02*
X147642857Y-97178571D01*
X147785714Y-97702380D02*
X147309523Y-97702380D01*
X147309523Y-96702380D01*
X147785714Y-96702380D01*
X148785714Y-97607142D02*
X148738095Y-97654761D01*
X148595238Y-97702380D01*
X148500000Y-97702380D01*
X148357142Y-97654761D01*
X148261904Y-97559523D01*
X148214285Y-97464285D01*
X148166666Y-97273809D01*
X148166666Y-97130952D01*
X148214285Y-96940476D01*
X148261904Y-96845238D01*
X148357142Y-96750000D01*
X148500000Y-96702380D01*
X148595238Y-96702380D01*
X148738095Y-96750000D01*
X148785714Y-96797619D01*
X149119047Y-96702380D02*
X149738095Y-96702380D01*
X149404761Y-97083333D01*
X149547619Y-97083333D01*
X149642857Y-97130952D01*
X149690476Y-97178571D01*
X149738095Y-97273809D01*
X149738095Y-97511904D01*
X149690476Y-97607142D01*
X149642857Y-97654761D01*
X149547619Y-97702380D01*
X149261904Y-97702380D01*
X149166666Y-97654761D01*
X149119047Y-97607142D01*
X146321428Y-102952380D02*
X146321428Y-101952380D01*
X146702380Y-101952380D01*
X146797619Y-102000000D01*
X146845238Y-102047619D01*
X146892857Y-102142857D01*
X146892857Y-102285714D01*
X146845238Y-102380952D01*
X146797619Y-102428571D01*
X146702380Y-102476190D01*
X146321428Y-102476190D01*
X147511904Y-101952380D02*
X147607142Y-101952380D01*
X147702380Y-102000000D01*
X147750000Y-102047619D01*
X147797619Y-102142857D01*
X147845238Y-102333333D01*
X147845238Y-102571428D01*
X147797619Y-102761904D01*
X147750000Y-102857142D01*
X147702380Y-102904761D01*
X147607142Y-102952380D01*
X147511904Y-102952380D01*
X147416666Y-102904761D01*
X147369047Y-102857142D01*
X147321428Y-102761904D01*
X147273809Y-102571428D01*
X147273809Y-102333333D01*
X147321428Y-102142857D01*
X147369047Y-102047619D01*
X147416666Y-102000000D01*
X147511904Y-101952380D01*
X148273809Y-102857142D02*
X148321428Y-102904761D01*
X148273809Y-102952380D01*
X148226190Y-102904761D01*
X148273809Y-102857142D01*
X148273809Y-102952380D01*
X148702380Y-102047619D02*
X148750000Y-102000000D01*
X148845238Y-101952380D01*
X149083333Y-101952380D01*
X149178571Y-102000000D01*
X149226190Y-102047619D01*
X149273809Y-102142857D01*
X149273809Y-102238095D01*
X149226190Y-102380952D01*
X148654761Y-102952380D01*
X149273809Y-102952380D01*
X150130952Y-101952380D02*
X149940476Y-101952380D01*
X149845238Y-102000000D01*
X149797619Y-102047619D01*
X149702380Y-102190476D01*
X149654761Y-102380952D01*
X149654761Y-102761904D01*
X149702380Y-102857142D01*
X149750000Y-102904761D01*
X149845238Y-102952380D01*
X150035714Y-102952380D01*
X150130952Y-102904761D01*
X150178571Y-102857142D01*
X150226190Y-102761904D01*
X150226190Y-102523809D01*
X150178571Y-102428571D01*
X150130952Y-102380952D01*
X150035714Y-102333333D01*
X149845238Y-102333333D01*
X149750000Y-102380952D01*
X149702380Y-102428571D01*
X149654761Y-102523809D01*
X146321428Y-100202380D02*
X146321428Y-99202380D01*
X146702380Y-99202380D01*
X146797619Y-99250000D01*
X146845238Y-99297619D01*
X146892857Y-99392857D01*
X146892857Y-99535714D01*
X146845238Y-99630952D01*
X146797619Y-99678571D01*
X146702380Y-99726190D01*
X146321428Y-99726190D01*
X147511904Y-99202380D02*
X147607142Y-99202380D01*
X147702380Y-99250000D01*
X147750000Y-99297619D01*
X147797619Y-99392857D01*
X147845238Y-99583333D01*
X147845238Y-99821428D01*
X147797619Y-100011904D01*
X147750000Y-100107142D01*
X147702380Y-100154761D01*
X147607142Y-100202380D01*
X147511904Y-100202380D01*
X147416666Y-100154761D01*
X147369047Y-100107142D01*
X147321428Y-100011904D01*
X147273809Y-99821428D01*
X147273809Y-99583333D01*
X147321428Y-99392857D01*
X147369047Y-99297619D01*
X147416666Y-99250000D01*
X147511904Y-99202380D01*
X148273809Y-100107142D02*
X148321428Y-100154761D01*
X148273809Y-100202380D01*
X148226190Y-100154761D01*
X148273809Y-100107142D01*
X148273809Y-100202380D01*
X148702380Y-99297619D02*
X148750000Y-99250000D01*
X148845238Y-99202380D01*
X149083333Y-99202380D01*
X149178571Y-99250000D01*
X149226190Y-99297619D01*
X149273809Y-99392857D01*
X149273809Y-99488095D01*
X149226190Y-99630952D01*
X148654761Y-100202380D01*
X149273809Y-100202380D01*
X150178571Y-99202380D02*
X149702380Y-99202380D01*
X149654761Y-99678571D01*
X149702380Y-99630952D01*
X149797619Y-99583333D01*
X150035714Y-99583333D01*
X150130952Y-99630952D01*
X150178571Y-99678571D01*
X150226190Y-99773809D01*
X150226190Y-100011904D01*
X150178571Y-100107142D01*
X150130952Y-100154761D01*
X150035714Y-100202380D01*
X149797619Y-100202380D01*
X149702380Y-100154761D01*
X149654761Y-100107142D01*
D13*
X143800000Y-88100000D02*
X143800000Y-86900000D01*
X143800000Y-88100000D02*
X145000000Y-88100000D01*
X161700000Y-88100000D02*
X161700000Y-86900000D01*
X161700000Y-88100000D02*
X160500000Y-88100000D01*
X161700000Y-67700000D02*
X161700000Y-69000000D01*
X143800000Y-67700000D02*
X143800000Y-69000000D01*
X143800000Y-64700000D02*
X143800000Y-59000000D01*
X143800000Y-59000000D02*
X161700000Y-59000000D01*
X161700000Y-59000000D02*
X161700000Y-64700000D01*
X142370000Y-93370000D02*
X143700000Y-93370000D01*
X142370000Y-94700000D02*
X142370000Y-93370000D01*
X142370000Y-95970000D02*
X145030000Y-95970000D01*
X145030000Y-95970000D02*
X145030000Y-144290000D01*
X142370000Y-95970000D02*
X142370000Y-144290000D01*
X142370000Y-144290000D02*
X145030000Y-144290000D01*
X160170000Y-144290000D02*
X162830000Y-144290000D01*
X160170000Y-95970000D02*
X160170000Y-144290000D01*
X162830000Y-95970000D02*
X162830000Y-144290000D01*
X160170000Y-95970000D02*
X162830000Y-95970000D01*
X160170000Y-94700000D02*
X160170000Y-93370000D01*
X160170000Y-93370000D02*
X161500000Y-93370000D01*
M02*
