G04 #@! TF.GenerationSoftware,KiCad,Pcbnew,(5.1.5-0-10_14)*
G04 #@! TF.CreationDate,2020-04-30T13:13:03+04:00*
G04 #@! TF.ProjectId,E73-2G4M04S1B-Breakout,4537332d-3247-4344-9d30-345331422d42,A1*
G04 #@! TF.SameCoordinates,Original*
G04 #@! TF.FileFunction,Copper,L2,Bot*
G04 #@! TF.FilePolarity,Positive*
%FSLAX46Y46*%
G04 Gerber Fmt 4.6, Leading zero omitted, Abs format (unit mm)*
G04 Created by KiCad (PCBNEW (5.1.5-0-10_14)) date 2020-04-30 13:13:03*
%MOMM*%
%LPD*%
G04 APERTURE LIST*
%ADD10O,1.700000X1.700000*%
%ADD11R,1.700000X1.700000*%
%ADD12C,0.800000*%
%ADD13C,0.300000*%
%ADD14C,0.254000*%
G04 APERTURE END LIST*
D10*
X143700000Y-142960000D03*
X143700000Y-140420000D03*
X143700000Y-137880000D03*
X143700000Y-135340000D03*
X143700000Y-132800000D03*
X143700000Y-130260000D03*
X143700000Y-127720000D03*
X143700000Y-125180000D03*
X143700000Y-122640000D03*
X143700000Y-120100000D03*
X143700000Y-117560000D03*
X143700000Y-115020000D03*
X143700000Y-112480000D03*
X143700000Y-109940000D03*
X143700000Y-107400000D03*
X143700000Y-104860000D03*
X143700000Y-102320000D03*
X143700000Y-99780000D03*
X143700000Y-97240000D03*
D11*
X143700000Y-94700000D03*
X161500000Y-94700000D03*
D10*
X161500000Y-97240000D03*
X161500000Y-99780000D03*
X161500000Y-102320000D03*
X161500000Y-104860000D03*
X161500000Y-107400000D03*
X161500000Y-109940000D03*
X161500000Y-112480000D03*
X161500000Y-115020000D03*
X161500000Y-117560000D03*
X161500000Y-120100000D03*
X161500000Y-122640000D03*
X161500000Y-125180000D03*
X161500000Y-127720000D03*
X161500000Y-130260000D03*
X161500000Y-132800000D03*
X161500000Y-135340000D03*
X161500000Y-137880000D03*
X161500000Y-140420000D03*
X161500000Y-142960000D03*
D12*
X146350000Y-69750000D03*
X159100000Y-67050000D03*
X145800000Y-86100000D03*
X152000000Y-85000000D03*
X152000000Y-83500000D03*
X152000000Y-82250000D03*
X152000000Y-81000000D03*
X152000000Y-80000000D03*
X149250000Y-78500000D03*
X149250000Y-77250000D03*
X149250000Y-76000000D03*
X149250000Y-74750000D03*
X149250000Y-73500000D03*
X149250000Y-72250000D03*
X149250000Y-71000000D03*
X156250000Y-69500000D03*
X156250000Y-70750000D03*
X156250000Y-72250000D03*
X156250000Y-73500000D03*
X156250000Y-74750000D03*
X156250000Y-76000000D03*
X156250000Y-77250000D03*
X156250000Y-78500000D03*
X153250000Y-80000000D03*
X153250000Y-81000000D03*
X153250000Y-82250000D03*
X153250000Y-83500000D03*
X153250000Y-85000000D03*
X153250000Y-86250000D03*
D13*
X152000000Y-114340000D02*
X143700000Y-122640000D01*
X152000000Y-85000000D02*
X152000000Y-114340000D01*
X151322999Y-85322999D02*
X151572990Y-85572990D01*
X151322999Y-84177001D02*
X151322999Y-85322999D01*
X152000000Y-83500000D02*
X151322999Y-84177001D01*
X151572990Y-112227010D02*
X143700000Y-120100000D01*
X151572990Y-85572990D02*
X151572990Y-112227010D01*
X150895989Y-85645989D02*
X151145980Y-85895980D01*
X150895989Y-83602049D02*
X150895989Y-85645989D01*
X152000000Y-82498038D02*
X150895989Y-83602049D01*
X152000000Y-82250000D02*
X152000000Y-82498038D01*
X151145980Y-110114020D02*
X143700000Y-117560000D01*
X151145980Y-85895980D02*
X151145980Y-110114020D01*
X150468979Y-85968979D02*
X150718970Y-86218970D01*
X150468979Y-82531021D02*
X150468979Y-85968979D01*
X152000000Y-81000000D02*
X150468979Y-82531021D01*
X150718970Y-108001030D02*
X143700000Y-115020000D01*
X150718970Y-86218970D02*
X150718970Y-108001030D01*
X150041969Y-86291969D02*
X150291960Y-86541960D01*
X150041969Y-81958031D02*
X150041969Y-86291969D01*
X152000000Y-80000000D02*
X150041969Y-81958031D01*
X150291960Y-105888040D02*
X144680000Y-111500000D01*
X150291960Y-86541960D02*
X150291960Y-105888040D01*
X144680000Y-111500000D02*
X143700000Y-112480000D01*
X149250000Y-104390000D02*
X143700000Y-109940000D01*
X149250000Y-78500000D02*
X149250000Y-104390000D01*
X148572999Y-79072999D02*
X148822990Y-79322990D01*
X148572999Y-77927001D02*
X148572999Y-79072999D01*
X149250000Y-77250000D02*
X148572999Y-77927001D01*
X148822990Y-102277010D02*
X143700000Y-107400000D01*
X148822990Y-79322990D02*
X148822990Y-102277010D01*
X148145989Y-77104011D02*
X148145989Y-79249872D01*
X148145989Y-79249872D02*
X148395980Y-79499863D01*
X149250000Y-76000000D02*
X148145989Y-77104011D01*
X148395980Y-100164020D02*
X143700000Y-104860000D01*
X148395980Y-79499863D02*
X148395980Y-100164020D01*
X147718979Y-79468979D02*
X147968970Y-79718970D01*
X147718979Y-76281021D02*
X147718979Y-79468979D01*
X149250000Y-74750000D02*
X147718979Y-76281021D01*
X147968970Y-98051030D02*
X143700000Y-102320000D01*
X147968970Y-79718970D02*
X147968970Y-98051030D01*
X147291969Y-79645852D02*
X147541960Y-79895843D01*
X147291969Y-75458031D02*
X147291969Y-79645852D01*
X149250000Y-73500000D02*
X147291969Y-75458031D01*
X147541960Y-95938040D02*
X143700000Y-99780000D01*
X147541960Y-79895843D02*
X147541960Y-95938040D01*
X146864959Y-79864959D02*
X147114950Y-80114950D01*
X146864959Y-74635041D02*
X146864959Y-79864959D01*
X149250000Y-72250000D02*
X146864959Y-74635041D01*
X147114950Y-93825050D02*
X143700000Y-97240000D01*
X147114950Y-80114950D02*
X147114950Y-93825050D01*
X146687940Y-80437940D02*
X146687940Y-92862060D01*
X144850000Y-94700000D02*
X143700000Y-94700000D01*
X146437949Y-80187949D02*
X146687940Y-80437940D01*
X149250000Y-71000000D02*
X146437949Y-73812051D01*
X146687940Y-92862060D02*
X144850000Y-94700000D01*
X146437949Y-73812051D02*
X146437949Y-80187949D01*
X159750000Y-95490000D02*
X161500000Y-97240000D01*
X159750000Y-73000000D02*
X159750000Y-95490000D01*
X156250000Y-69500000D02*
X159750000Y-73000000D01*
X159062051Y-79937949D02*
X158812060Y-80187940D01*
X159062051Y-73562051D02*
X159062051Y-79937949D01*
X156250000Y-70750000D02*
X159062051Y-73562051D01*
X158812060Y-97092060D02*
X161500000Y-99780000D01*
X158812060Y-80187940D02*
X158812060Y-97092060D01*
X158635041Y-79614959D02*
X158385050Y-79864950D01*
X158635041Y-74635041D02*
X158635041Y-79614959D01*
X156250000Y-72250000D02*
X158635041Y-74635041D01*
X158385050Y-99205050D02*
X161500000Y-102320000D01*
X158385050Y-79864950D02*
X158385050Y-99205050D01*
X158208031Y-79395852D02*
X157958040Y-79645843D01*
X158208031Y-75458031D02*
X158208031Y-79395852D01*
X156250000Y-73500000D02*
X158208031Y-75458031D01*
X157958040Y-101318040D02*
X161500000Y-104860000D01*
X157958040Y-79645843D02*
X157958040Y-101318040D01*
X157781021Y-79218979D02*
X157531030Y-79468970D01*
X157781021Y-76281021D02*
X157781021Y-79218979D01*
X156250000Y-74750000D02*
X157781021Y-76281021D01*
X157531030Y-103431030D02*
X161500000Y-107400000D01*
X157531030Y-79468970D02*
X157531030Y-103431030D01*
X157354011Y-78999872D02*
X157104020Y-79249863D01*
X157354011Y-77104011D02*
X157354011Y-78999872D01*
X156250000Y-76000000D02*
X157354011Y-77104011D01*
X157104020Y-105544020D02*
X161500000Y-109940000D01*
X157104020Y-79249863D02*
X157104020Y-105544020D01*
X156927001Y-78822999D02*
X156677010Y-79072990D01*
X156927001Y-77927001D02*
X156927001Y-78822999D01*
X156250000Y-77250000D02*
X156927001Y-77927001D01*
X156677010Y-107657010D02*
X161500000Y-112480000D01*
X156677010Y-79072990D02*
X156677010Y-107657010D01*
X156250000Y-109770000D02*
X161500000Y-115020000D01*
X156250000Y-78500000D02*
X156250000Y-109770000D01*
X155635041Y-87822725D02*
X155385050Y-88072716D01*
X155635041Y-82385041D02*
X155635041Y-87822725D01*
X153250000Y-80000000D02*
X155635041Y-82385041D01*
X155385050Y-111445050D02*
X161500000Y-117560000D01*
X155385050Y-88072716D02*
X155385050Y-111445050D01*
X155208031Y-87645852D02*
X154958040Y-87895843D01*
X155208031Y-82958031D02*
X155208031Y-87645852D01*
X153250000Y-81000000D02*
X155208031Y-82958031D01*
X154958040Y-113558040D02*
X161500000Y-120100000D01*
X154958040Y-87895843D02*
X154958040Y-113558040D01*
X154781021Y-87468979D02*
X154531030Y-87718970D01*
X154781021Y-83781021D02*
X154781021Y-87468979D01*
X153250000Y-82250000D02*
X154781021Y-83781021D01*
X154531030Y-115671030D02*
X161500000Y-122640000D01*
X154531030Y-87718970D02*
X154531030Y-115671030D01*
X154354011Y-87145989D02*
X154104020Y-87395980D01*
X154354011Y-84604011D02*
X154354011Y-87145989D01*
X153250000Y-83500000D02*
X154354011Y-84604011D01*
X154104020Y-117784020D02*
X161500000Y-125180000D01*
X154104020Y-87395980D02*
X154104020Y-117784020D01*
X153927001Y-86822999D02*
X153677010Y-87072990D01*
X153927001Y-85677001D02*
X153927001Y-86822999D01*
X153250000Y-85000000D02*
X153927001Y-85677001D01*
X153677010Y-119897010D02*
X161500000Y-127720000D01*
X153677010Y-87072990D02*
X153677010Y-119897010D01*
X153250000Y-122010000D02*
X161500000Y-130260000D01*
X153250000Y-86250000D02*
X153250000Y-122010000D01*
D14*
G36*
X163340001Y-65175534D02*
G01*
X163340000Y-144440000D01*
X161671397Y-144440000D01*
X161933158Y-144387932D01*
X162203411Y-144275990D01*
X162446632Y-144113475D01*
X162653475Y-143906632D01*
X162815990Y-143663411D01*
X162927932Y-143393158D01*
X162985000Y-143106260D01*
X162985000Y-142813740D01*
X162927932Y-142526842D01*
X162815990Y-142256589D01*
X162653475Y-142013368D01*
X162446632Y-141806525D01*
X162272240Y-141690000D01*
X162446632Y-141573475D01*
X162653475Y-141366632D01*
X162815990Y-141123411D01*
X162927932Y-140853158D01*
X162985000Y-140566260D01*
X162985000Y-140273740D01*
X162927932Y-139986842D01*
X162815990Y-139716589D01*
X162653475Y-139473368D01*
X162446632Y-139266525D01*
X162272240Y-139150000D01*
X162446632Y-139033475D01*
X162653475Y-138826632D01*
X162815990Y-138583411D01*
X162927932Y-138313158D01*
X162985000Y-138026260D01*
X162985000Y-137733740D01*
X162927932Y-137446842D01*
X162815990Y-137176589D01*
X162653475Y-136933368D01*
X162446632Y-136726525D01*
X162272240Y-136610000D01*
X162446632Y-136493475D01*
X162653475Y-136286632D01*
X162815990Y-136043411D01*
X162927932Y-135773158D01*
X162985000Y-135486260D01*
X162985000Y-135193740D01*
X162927932Y-134906842D01*
X162815990Y-134636589D01*
X162653475Y-134393368D01*
X162446632Y-134186525D01*
X162272240Y-134070000D01*
X162446632Y-133953475D01*
X162653475Y-133746632D01*
X162815990Y-133503411D01*
X162927932Y-133233158D01*
X162985000Y-132946260D01*
X162985000Y-132653740D01*
X162927932Y-132366842D01*
X162815990Y-132096589D01*
X162653475Y-131853368D01*
X162446632Y-131646525D01*
X162272240Y-131530000D01*
X162446632Y-131413475D01*
X162653475Y-131206632D01*
X162815990Y-130963411D01*
X162927932Y-130693158D01*
X162985000Y-130406260D01*
X162985000Y-130113740D01*
X162927932Y-129826842D01*
X162815990Y-129556589D01*
X162653475Y-129313368D01*
X162446632Y-129106525D01*
X162272240Y-128990000D01*
X162446632Y-128873475D01*
X162653475Y-128666632D01*
X162815990Y-128423411D01*
X162927932Y-128153158D01*
X162985000Y-127866260D01*
X162985000Y-127573740D01*
X162927932Y-127286842D01*
X162815990Y-127016589D01*
X162653475Y-126773368D01*
X162446632Y-126566525D01*
X162272240Y-126450000D01*
X162446632Y-126333475D01*
X162653475Y-126126632D01*
X162815990Y-125883411D01*
X162927932Y-125613158D01*
X162985000Y-125326260D01*
X162985000Y-125033740D01*
X162927932Y-124746842D01*
X162815990Y-124476589D01*
X162653475Y-124233368D01*
X162446632Y-124026525D01*
X162272240Y-123910000D01*
X162446632Y-123793475D01*
X162653475Y-123586632D01*
X162815990Y-123343411D01*
X162927932Y-123073158D01*
X162985000Y-122786260D01*
X162985000Y-122493740D01*
X162927932Y-122206842D01*
X162815990Y-121936589D01*
X162653475Y-121693368D01*
X162446632Y-121486525D01*
X162272240Y-121370000D01*
X162446632Y-121253475D01*
X162653475Y-121046632D01*
X162815990Y-120803411D01*
X162927932Y-120533158D01*
X162985000Y-120246260D01*
X162985000Y-119953740D01*
X162927932Y-119666842D01*
X162815990Y-119396589D01*
X162653475Y-119153368D01*
X162446632Y-118946525D01*
X162272240Y-118830000D01*
X162446632Y-118713475D01*
X162653475Y-118506632D01*
X162815990Y-118263411D01*
X162927932Y-117993158D01*
X162985000Y-117706260D01*
X162985000Y-117413740D01*
X162927932Y-117126842D01*
X162815990Y-116856589D01*
X162653475Y-116613368D01*
X162446632Y-116406525D01*
X162272240Y-116290000D01*
X162446632Y-116173475D01*
X162653475Y-115966632D01*
X162815990Y-115723411D01*
X162927932Y-115453158D01*
X162985000Y-115166260D01*
X162985000Y-114873740D01*
X162927932Y-114586842D01*
X162815990Y-114316589D01*
X162653475Y-114073368D01*
X162446632Y-113866525D01*
X162272240Y-113750000D01*
X162446632Y-113633475D01*
X162653475Y-113426632D01*
X162815990Y-113183411D01*
X162927932Y-112913158D01*
X162985000Y-112626260D01*
X162985000Y-112333740D01*
X162927932Y-112046842D01*
X162815990Y-111776589D01*
X162653475Y-111533368D01*
X162446632Y-111326525D01*
X162272240Y-111210000D01*
X162446632Y-111093475D01*
X162653475Y-110886632D01*
X162815990Y-110643411D01*
X162927932Y-110373158D01*
X162985000Y-110086260D01*
X162985000Y-109793740D01*
X162927932Y-109506842D01*
X162815990Y-109236589D01*
X162653475Y-108993368D01*
X162446632Y-108786525D01*
X162272240Y-108670000D01*
X162446632Y-108553475D01*
X162653475Y-108346632D01*
X162815990Y-108103411D01*
X162927932Y-107833158D01*
X162985000Y-107546260D01*
X162985000Y-107253740D01*
X162927932Y-106966842D01*
X162815990Y-106696589D01*
X162653475Y-106453368D01*
X162446632Y-106246525D01*
X162272240Y-106130000D01*
X162446632Y-106013475D01*
X162653475Y-105806632D01*
X162815990Y-105563411D01*
X162927932Y-105293158D01*
X162985000Y-105006260D01*
X162985000Y-104713740D01*
X162927932Y-104426842D01*
X162815990Y-104156589D01*
X162653475Y-103913368D01*
X162446632Y-103706525D01*
X162272240Y-103590000D01*
X162446632Y-103473475D01*
X162653475Y-103266632D01*
X162815990Y-103023411D01*
X162927932Y-102753158D01*
X162985000Y-102466260D01*
X162985000Y-102173740D01*
X162927932Y-101886842D01*
X162815990Y-101616589D01*
X162653475Y-101373368D01*
X162446632Y-101166525D01*
X162272240Y-101050000D01*
X162446632Y-100933475D01*
X162653475Y-100726632D01*
X162815990Y-100483411D01*
X162927932Y-100213158D01*
X162985000Y-99926260D01*
X162985000Y-99633740D01*
X162927932Y-99346842D01*
X162815990Y-99076589D01*
X162653475Y-98833368D01*
X162446632Y-98626525D01*
X162272240Y-98510000D01*
X162446632Y-98393475D01*
X162653475Y-98186632D01*
X162815990Y-97943411D01*
X162927932Y-97673158D01*
X162985000Y-97386260D01*
X162985000Y-97093740D01*
X162927932Y-96806842D01*
X162815990Y-96536589D01*
X162653475Y-96293368D01*
X162521620Y-96161513D01*
X162594180Y-96139502D01*
X162704494Y-96080537D01*
X162801185Y-96001185D01*
X162880537Y-95904494D01*
X162939502Y-95794180D01*
X162975812Y-95674482D01*
X162988072Y-95550000D01*
X162988072Y-93850000D01*
X162975812Y-93725518D01*
X162939502Y-93605820D01*
X162880537Y-93495506D01*
X162801185Y-93398815D01*
X162704494Y-93319463D01*
X162594180Y-93260498D01*
X162474482Y-93224188D01*
X162350000Y-93211928D01*
X160650000Y-93211928D01*
X160535000Y-93223254D01*
X160535000Y-73038552D01*
X160538797Y-72999999D01*
X160535000Y-72961446D01*
X160535000Y-72961439D01*
X160523641Y-72846113D01*
X160519754Y-72833297D01*
X160500930Y-72771246D01*
X160478754Y-72698140D01*
X160405862Y-72561767D01*
X160307764Y-72442236D01*
X160277817Y-72417659D01*
X157285000Y-69424843D01*
X157285000Y-69398061D01*
X157245226Y-69198102D01*
X157167205Y-69009744D01*
X157053937Y-68840226D01*
X156909774Y-68696063D01*
X156740256Y-68582795D01*
X156551898Y-68504774D01*
X156351939Y-68465000D01*
X156148061Y-68465000D01*
X155948102Y-68504774D01*
X155759744Y-68582795D01*
X155590226Y-68696063D01*
X155446063Y-68840226D01*
X155332795Y-69009744D01*
X155254774Y-69198102D01*
X155215000Y-69398061D01*
X155215000Y-69601939D01*
X155254774Y-69801898D01*
X155332795Y-69990256D01*
X155422828Y-70125000D01*
X155332795Y-70259744D01*
X155254774Y-70448102D01*
X155215000Y-70648061D01*
X155215000Y-70851939D01*
X155254774Y-71051898D01*
X155332795Y-71240256D01*
X155446063Y-71409774D01*
X155536289Y-71500000D01*
X155446063Y-71590226D01*
X155332795Y-71759744D01*
X155254774Y-71948102D01*
X155215000Y-72148061D01*
X155215000Y-72351939D01*
X155254774Y-72551898D01*
X155332795Y-72740256D01*
X155422828Y-72875000D01*
X155332795Y-73009744D01*
X155254774Y-73198102D01*
X155215000Y-73398061D01*
X155215000Y-73601939D01*
X155254774Y-73801898D01*
X155332795Y-73990256D01*
X155422828Y-74125000D01*
X155332795Y-74259744D01*
X155254774Y-74448102D01*
X155215000Y-74648061D01*
X155215000Y-74851939D01*
X155254774Y-75051898D01*
X155332795Y-75240256D01*
X155422828Y-75375000D01*
X155332795Y-75509744D01*
X155254774Y-75698102D01*
X155215000Y-75898061D01*
X155215000Y-76101939D01*
X155254774Y-76301898D01*
X155332795Y-76490256D01*
X155422828Y-76625000D01*
X155332795Y-76759744D01*
X155254774Y-76948102D01*
X155215000Y-77148061D01*
X155215000Y-77351939D01*
X155254774Y-77551898D01*
X155332795Y-77740256D01*
X155422828Y-77875000D01*
X155332795Y-78009744D01*
X155254774Y-78198102D01*
X155215000Y-78398061D01*
X155215000Y-78601939D01*
X155254774Y-78801898D01*
X155332795Y-78990256D01*
X155446063Y-79159774D01*
X155465000Y-79178711D01*
X155465000Y-81104842D01*
X154285000Y-79924843D01*
X154285000Y-79898061D01*
X154245226Y-79698102D01*
X154167205Y-79509744D01*
X154053937Y-79340226D01*
X153909774Y-79196063D01*
X153740256Y-79082795D01*
X153551898Y-79004774D01*
X153351939Y-78965000D01*
X153148061Y-78965000D01*
X152948102Y-79004774D01*
X152759744Y-79082795D01*
X152625000Y-79172828D01*
X152490256Y-79082795D01*
X152301898Y-79004774D01*
X152101939Y-78965000D01*
X151898061Y-78965000D01*
X151698102Y-79004774D01*
X151509744Y-79082795D01*
X151340226Y-79196063D01*
X151196063Y-79340226D01*
X151082795Y-79509744D01*
X151004774Y-79698102D01*
X150965000Y-79898061D01*
X150965000Y-79924842D01*
X150035000Y-80854843D01*
X150035000Y-79178711D01*
X150053937Y-79159774D01*
X150167205Y-78990256D01*
X150245226Y-78801898D01*
X150285000Y-78601939D01*
X150285000Y-78398061D01*
X150245226Y-78198102D01*
X150167205Y-78009744D01*
X150077172Y-77875000D01*
X150167205Y-77740256D01*
X150245226Y-77551898D01*
X150285000Y-77351939D01*
X150285000Y-77148061D01*
X150245226Y-76948102D01*
X150167205Y-76759744D01*
X150077172Y-76625000D01*
X150167205Y-76490256D01*
X150245226Y-76301898D01*
X150285000Y-76101939D01*
X150285000Y-75898061D01*
X150245226Y-75698102D01*
X150167205Y-75509744D01*
X150077172Y-75375000D01*
X150167205Y-75240256D01*
X150245226Y-75051898D01*
X150285000Y-74851939D01*
X150285000Y-74648061D01*
X150245226Y-74448102D01*
X150167205Y-74259744D01*
X150077172Y-74125000D01*
X150167205Y-73990256D01*
X150245226Y-73801898D01*
X150285000Y-73601939D01*
X150285000Y-73398061D01*
X150245226Y-73198102D01*
X150167205Y-73009744D01*
X150077172Y-72875000D01*
X150167205Y-72740256D01*
X150245226Y-72551898D01*
X150285000Y-72351939D01*
X150285000Y-72148061D01*
X150245226Y-71948102D01*
X150167205Y-71759744D01*
X150077172Y-71625000D01*
X150167205Y-71490256D01*
X150245226Y-71301898D01*
X150285000Y-71101939D01*
X150285000Y-70898061D01*
X150245226Y-70698102D01*
X150167205Y-70509744D01*
X150053937Y-70340226D01*
X149909774Y-70196063D01*
X149740256Y-70082795D01*
X149551898Y-70004774D01*
X149351939Y-69965000D01*
X149148061Y-69965000D01*
X148948102Y-70004774D01*
X148759744Y-70082795D01*
X148590226Y-70196063D01*
X148446063Y-70340226D01*
X148332795Y-70509744D01*
X148254774Y-70698102D01*
X148215000Y-70898061D01*
X148215000Y-70924843D01*
X145910139Y-73229704D01*
X145880185Y-73254287D01*
X145782087Y-73373819D01*
X145709195Y-73510192D01*
X145664308Y-73658165D01*
X145652949Y-73773491D01*
X145652949Y-73773498D01*
X145649152Y-73812051D01*
X145652949Y-73850604D01*
X145652950Y-80149386D01*
X145649152Y-80187949D01*
X145664308Y-80341835D01*
X145709195Y-80489808D01*
X145725772Y-80520821D01*
X145782088Y-80626182D01*
X145804719Y-80653757D01*
X145855604Y-80715761D01*
X145855608Y-80715765D01*
X145880186Y-80745713D01*
X145902940Y-80764387D01*
X145902941Y-92536902D01*
X145019144Y-93420699D01*
X145001185Y-93398815D01*
X144904494Y-93319463D01*
X144794180Y-93260498D01*
X144674482Y-93224188D01*
X144550000Y-93211928D01*
X142850000Y-93211928D01*
X142725518Y-93224188D01*
X142605820Y-93260498D01*
X142495506Y-93319463D01*
X142398815Y-93398815D01*
X142319463Y-93495506D01*
X142260498Y-93605820D01*
X142224188Y-93725518D01*
X142211928Y-93850000D01*
X142211928Y-95550000D01*
X142224188Y-95674482D01*
X142260498Y-95794180D01*
X142319463Y-95904494D01*
X142398815Y-96001185D01*
X142495506Y-96080537D01*
X142605820Y-96139502D01*
X142678380Y-96161513D01*
X142546525Y-96293368D01*
X142384010Y-96536589D01*
X142272068Y-96806842D01*
X142215000Y-97093740D01*
X142215000Y-97386260D01*
X142272068Y-97673158D01*
X142384010Y-97943411D01*
X142546525Y-98186632D01*
X142753368Y-98393475D01*
X142927760Y-98510000D01*
X142753368Y-98626525D01*
X142546525Y-98833368D01*
X142384010Y-99076589D01*
X142272068Y-99346842D01*
X142215000Y-99633740D01*
X142215000Y-99926260D01*
X142272068Y-100213158D01*
X142384010Y-100483411D01*
X142546525Y-100726632D01*
X142753368Y-100933475D01*
X142927760Y-101050000D01*
X142753368Y-101166525D01*
X142546525Y-101373368D01*
X142384010Y-101616589D01*
X142272068Y-101886842D01*
X142215000Y-102173740D01*
X142215000Y-102466260D01*
X142272068Y-102753158D01*
X142384010Y-103023411D01*
X142546525Y-103266632D01*
X142753368Y-103473475D01*
X142927760Y-103590000D01*
X142753368Y-103706525D01*
X142546525Y-103913368D01*
X142384010Y-104156589D01*
X142272068Y-104426842D01*
X142215000Y-104713740D01*
X142215000Y-105006260D01*
X142272068Y-105293158D01*
X142384010Y-105563411D01*
X142546525Y-105806632D01*
X142753368Y-106013475D01*
X142927760Y-106130000D01*
X142753368Y-106246525D01*
X142546525Y-106453368D01*
X142384010Y-106696589D01*
X142272068Y-106966842D01*
X142215000Y-107253740D01*
X142215000Y-107546260D01*
X142272068Y-107833158D01*
X142384010Y-108103411D01*
X142546525Y-108346632D01*
X142753368Y-108553475D01*
X142927760Y-108670000D01*
X142753368Y-108786525D01*
X142546525Y-108993368D01*
X142384010Y-109236589D01*
X142272068Y-109506842D01*
X142215000Y-109793740D01*
X142215000Y-110086260D01*
X142272068Y-110373158D01*
X142384010Y-110643411D01*
X142546525Y-110886632D01*
X142753368Y-111093475D01*
X142927760Y-111210000D01*
X142753368Y-111326525D01*
X142546525Y-111533368D01*
X142384010Y-111776589D01*
X142272068Y-112046842D01*
X142215000Y-112333740D01*
X142215000Y-112626260D01*
X142272068Y-112913158D01*
X142384010Y-113183411D01*
X142546525Y-113426632D01*
X142753368Y-113633475D01*
X142927760Y-113750000D01*
X142753368Y-113866525D01*
X142546525Y-114073368D01*
X142384010Y-114316589D01*
X142272068Y-114586842D01*
X142215000Y-114873740D01*
X142215000Y-115166260D01*
X142272068Y-115453158D01*
X142384010Y-115723411D01*
X142546525Y-115966632D01*
X142753368Y-116173475D01*
X142927760Y-116290000D01*
X142753368Y-116406525D01*
X142546525Y-116613368D01*
X142384010Y-116856589D01*
X142272068Y-117126842D01*
X142215000Y-117413740D01*
X142215000Y-117706260D01*
X142272068Y-117993158D01*
X142384010Y-118263411D01*
X142546525Y-118506632D01*
X142753368Y-118713475D01*
X142927760Y-118830000D01*
X142753368Y-118946525D01*
X142546525Y-119153368D01*
X142384010Y-119396589D01*
X142272068Y-119666842D01*
X142215000Y-119953740D01*
X142215000Y-120246260D01*
X142272068Y-120533158D01*
X142384010Y-120803411D01*
X142546525Y-121046632D01*
X142753368Y-121253475D01*
X142927760Y-121370000D01*
X142753368Y-121486525D01*
X142546525Y-121693368D01*
X142384010Y-121936589D01*
X142272068Y-122206842D01*
X142215000Y-122493740D01*
X142215000Y-122786260D01*
X142272068Y-123073158D01*
X142384010Y-123343411D01*
X142546525Y-123586632D01*
X142753368Y-123793475D01*
X142935534Y-123915195D01*
X142818645Y-123984822D01*
X142602412Y-124179731D01*
X142428359Y-124413080D01*
X142303175Y-124675901D01*
X142258524Y-124823110D01*
X142379845Y-125053000D01*
X143573000Y-125053000D01*
X143573000Y-125033000D01*
X143827000Y-125033000D01*
X143827000Y-125053000D01*
X145020155Y-125053000D01*
X145141476Y-124823110D01*
X145096825Y-124675901D01*
X144971641Y-124413080D01*
X144797588Y-124179731D01*
X144581355Y-123984822D01*
X144464466Y-123915195D01*
X144646632Y-123793475D01*
X144853475Y-123586632D01*
X145015990Y-123343411D01*
X145127932Y-123073158D01*
X145185000Y-122786260D01*
X145185000Y-122493740D01*
X145147075Y-122303082D01*
X152465001Y-114985156D01*
X152465001Y-121971437D01*
X152461203Y-122010000D01*
X152476359Y-122163886D01*
X152521246Y-122311859D01*
X152521247Y-122311860D01*
X152594139Y-122448233D01*
X152625227Y-122486113D01*
X152667655Y-122537812D01*
X152667659Y-122537816D01*
X152692237Y-122567764D01*
X152722185Y-122592342D01*
X160052924Y-129923082D01*
X160015000Y-130113740D01*
X160015000Y-130406260D01*
X160072068Y-130693158D01*
X160184010Y-130963411D01*
X160346525Y-131206632D01*
X160553368Y-131413475D01*
X160727760Y-131530000D01*
X160553368Y-131646525D01*
X160346525Y-131853368D01*
X160184010Y-132096589D01*
X160072068Y-132366842D01*
X160015000Y-132653740D01*
X160015000Y-132946260D01*
X160072068Y-133233158D01*
X160184010Y-133503411D01*
X160346525Y-133746632D01*
X160553368Y-133953475D01*
X160727760Y-134070000D01*
X160553368Y-134186525D01*
X160346525Y-134393368D01*
X160184010Y-134636589D01*
X160072068Y-134906842D01*
X160015000Y-135193740D01*
X160015000Y-135486260D01*
X160072068Y-135773158D01*
X160184010Y-136043411D01*
X160346525Y-136286632D01*
X160553368Y-136493475D01*
X160727760Y-136610000D01*
X160553368Y-136726525D01*
X160346525Y-136933368D01*
X160184010Y-137176589D01*
X160072068Y-137446842D01*
X160015000Y-137733740D01*
X160015000Y-138026260D01*
X160072068Y-138313158D01*
X160184010Y-138583411D01*
X160346525Y-138826632D01*
X160553368Y-139033475D01*
X160727760Y-139150000D01*
X160553368Y-139266525D01*
X160346525Y-139473368D01*
X160184010Y-139716589D01*
X160072068Y-139986842D01*
X160015000Y-140273740D01*
X160015000Y-140566260D01*
X160072068Y-140853158D01*
X160184010Y-141123411D01*
X160346525Y-141366632D01*
X160553368Y-141573475D01*
X160727760Y-141690000D01*
X160553368Y-141806525D01*
X160346525Y-142013368D01*
X160184010Y-142256589D01*
X160072068Y-142526842D01*
X160015000Y-142813740D01*
X160015000Y-143106260D01*
X160072068Y-143393158D01*
X160184010Y-143663411D01*
X160346525Y-143906632D01*
X160553368Y-144113475D01*
X160796589Y-144275990D01*
X161066842Y-144387932D01*
X161328603Y-144440000D01*
X143871397Y-144440000D01*
X144133158Y-144387932D01*
X144403411Y-144275990D01*
X144646632Y-144113475D01*
X144853475Y-143906632D01*
X145015990Y-143663411D01*
X145127932Y-143393158D01*
X145185000Y-143106260D01*
X145185000Y-142813740D01*
X145127932Y-142526842D01*
X145015990Y-142256589D01*
X144853475Y-142013368D01*
X144646632Y-141806525D01*
X144472240Y-141690000D01*
X144646632Y-141573475D01*
X144853475Y-141366632D01*
X145015990Y-141123411D01*
X145127932Y-140853158D01*
X145185000Y-140566260D01*
X145185000Y-140273740D01*
X145127932Y-139986842D01*
X145015990Y-139716589D01*
X144853475Y-139473368D01*
X144646632Y-139266525D01*
X144472240Y-139150000D01*
X144646632Y-139033475D01*
X144853475Y-138826632D01*
X145015990Y-138583411D01*
X145127932Y-138313158D01*
X145185000Y-138026260D01*
X145185000Y-137733740D01*
X145127932Y-137446842D01*
X145015990Y-137176589D01*
X144853475Y-136933368D01*
X144646632Y-136726525D01*
X144472240Y-136610000D01*
X144646632Y-136493475D01*
X144853475Y-136286632D01*
X145015990Y-136043411D01*
X145127932Y-135773158D01*
X145185000Y-135486260D01*
X145185000Y-135193740D01*
X145127932Y-134906842D01*
X145015990Y-134636589D01*
X144853475Y-134393368D01*
X144646632Y-134186525D01*
X144472240Y-134070000D01*
X144646632Y-133953475D01*
X144853475Y-133746632D01*
X145015990Y-133503411D01*
X145127932Y-133233158D01*
X145185000Y-132946260D01*
X145185000Y-132653740D01*
X145127932Y-132366842D01*
X145015990Y-132096589D01*
X144853475Y-131853368D01*
X144646632Y-131646525D01*
X144472240Y-131530000D01*
X144646632Y-131413475D01*
X144853475Y-131206632D01*
X145015990Y-130963411D01*
X145127932Y-130693158D01*
X145185000Y-130406260D01*
X145185000Y-130113740D01*
X145127932Y-129826842D01*
X145015990Y-129556589D01*
X144853475Y-129313368D01*
X144646632Y-129106525D01*
X144472240Y-128990000D01*
X144646632Y-128873475D01*
X144853475Y-128666632D01*
X145015990Y-128423411D01*
X145127932Y-128153158D01*
X145185000Y-127866260D01*
X145185000Y-127573740D01*
X145127932Y-127286842D01*
X145015990Y-127016589D01*
X144853475Y-126773368D01*
X144646632Y-126566525D01*
X144464466Y-126444805D01*
X144581355Y-126375178D01*
X144797588Y-126180269D01*
X144971641Y-125946920D01*
X145096825Y-125684099D01*
X145141476Y-125536890D01*
X145020155Y-125307000D01*
X143827000Y-125307000D01*
X143827000Y-125327000D01*
X143573000Y-125327000D01*
X143573000Y-125307000D01*
X142379845Y-125307000D01*
X142258524Y-125536890D01*
X142303175Y-125684099D01*
X142428359Y-125946920D01*
X142602412Y-126180269D01*
X142818645Y-126375178D01*
X142935534Y-126444805D01*
X142753368Y-126566525D01*
X142546525Y-126773368D01*
X142384010Y-127016589D01*
X142272068Y-127286842D01*
X142215000Y-127573740D01*
X142215000Y-127866260D01*
X142272068Y-128153158D01*
X142384010Y-128423411D01*
X142546525Y-128666632D01*
X142753368Y-128873475D01*
X142927760Y-128990000D01*
X142753368Y-129106525D01*
X142546525Y-129313368D01*
X142384010Y-129556589D01*
X142272068Y-129826842D01*
X142215000Y-130113740D01*
X142215000Y-130406260D01*
X142272068Y-130693158D01*
X142384010Y-130963411D01*
X142546525Y-131206632D01*
X142753368Y-131413475D01*
X142927760Y-131530000D01*
X142753368Y-131646525D01*
X142546525Y-131853368D01*
X142384010Y-132096589D01*
X142272068Y-132366842D01*
X142215000Y-132653740D01*
X142215000Y-132946260D01*
X142272068Y-133233158D01*
X142384010Y-133503411D01*
X142546525Y-133746632D01*
X142753368Y-133953475D01*
X142927760Y-134070000D01*
X142753368Y-134186525D01*
X142546525Y-134393368D01*
X142384010Y-134636589D01*
X142272068Y-134906842D01*
X142215000Y-135193740D01*
X142215000Y-135486260D01*
X142272068Y-135773158D01*
X142384010Y-136043411D01*
X142546525Y-136286632D01*
X142753368Y-136493475D01*
X142927760Y-136610000D01*
X142753368Y-136726525D01*
X142546525Y-136933368D01*
X142384010Y-137176589D01*
X142272068Y-137446842D01*
X142215000Y-137733740D01*
X142215000Y-138026260D01*
X142272068Y-138313158D01*
X142384010Y-138583411D01*
X142546525Y-138826632D01*
X142753368Y-139033475D01*
X142927760Y-139150000D01*
X142753368Y-139266525D01*
X142546525Y-139473368D01*
X142384010Y-139716589D01*
X142272068Y-139986842D01*
X142215000Y-140273740D01*
X142215000Y-140566260D01*
X142272068Y-140853158D01*
X142384010Y-141123411D01*
X142546525Y-141366632D01*
X142753368Y-141573475D01*
X142927760Y-141690000D01*
X142753368Y-141806525D01*
X142546525Y-142013368D01*
X142384010Y-142256589D01*
X142272068Y-142526842D01*
X142215000Y-142813740D01*
X142215000Y-143106260D01*
X142272068Y-143393158D01*
X142384010Y-143663411D01*
X142546525Y-143906632D01*
X142753368Y-144113475D01*
X142996589Y-144275990D01*
X143266842Y-144387932D01*
X143528603Y-144440000D01*
X142160000Y-144440000D01*
X142160000Y-65128467D01*
X163340001Y-65175534D01*
G37*
X163340001Y-65175534D02*
X163340000Y-144440000D01*
X161671397Y-144440000D01*
X161933158Y-144387932D01*
X162203411Y-144275990D01*
X162446632Y-144113475D01*
X162653475Y-143906632D01*
X162815990Y-143663411D01*
X162927932Y-143393158D01*
X162985000Y-143106260D01*
X162985000Y-142813740D01*
X162927932Y-142526842D01*
X162815990Y-142256589D01*
X162653475Y-142013368D01*
X162446632Y-141806525D01*
X162272240Y-141690000D01*
X162446632Y-141573475D01*
X162653475Y-141366632D01*
X162815990Y-141123411D01*
X162927932Y-140853158D01*
X162985000Y-140566260D01*
X162985000Y-140273740D01*
X162927932Y-139986842D01*
X162815990Y-139716589D01*
X162653475Y-139473368D01*
X162446632Y-139266525D01*
X162272240Y-139150000D01*
X162446632Y-139033475D01*
X162653475Y-138826632D01*
X162815990Y-138583411D01*
X162927932Y-138313158D01*
X162985000Y-138026260D01*
X162985000Y-137733740D01*
X162927932Y-137446842D01*
X162815990Y-137176589D01*
X162653475Y-136933368D01*
X162446632Y-136726525D01*
X162272240Y-136610000D01*
X162446632Y-136493475D01*
X162653475Y-136286632D01*
X162815990Y-136043411D01*
X162927932Y-135773158D01*
X162985000Y-135486260D01*
X162985000Y-135193740D01*
X162927932Y-134906842D01*
X162815990Y-134636589D01*
X162653475Y-134393368D01*
X162446632Y-134186525D01*
X162272240Y-134070000D01*
X162446632Y-133953475D01*
X162653475Y-133746632D01*
X162815990Y-133503411D01*
X162927932Y-133233158D01*
X162985000Y-132946260D01*
X162985000Y-132653740D01*
X162927932Y-132366842D01*
X162815990Y-132096589D01*
X162653475Y-131853368D01*
X162446632Y-131646525D01*
X162272240Y-131530000D01*
X162446632Y-131413475D01*
X162653475Y-131206632D01*
X162815990Y-130963411D01*
X162927932Y-130693158D01*
X162985000Y-130406260D01*
X162985000Y-130113740D01*
X162927932Y-129826842D01*
X162815990Y-129556589D01*
X162653475Y-129313368D01*
X162446632Y-129106525D01*
X162272240Y-128990000D01*
X162446632Y-128873475D01*
X162653475Y-128666632D01*
X162815990Y-128423411D01*
X162927932Y-128153158D01*
X162985000Y-127866260D01*
X162985000Y-127573740D01*
X162927932Y-127286842D01*
X162815990Y-127016589D01*
X162653475Y-126773368D01*
X162446632Y-126566525D01*
X162272240Y-126450000D01*
X162446632Y-126333475D01*
X162653475Y-126126632D01*
X162815990Y-125883411D01*
X162927932Y-125613158D01*
X162985000Y-125326260D01*
X162985000Y-125033740D01*
X162927932Y-124746842D01*
X162815990Y-124476589D01*
X162653475Y-124233368D01*
X162446632Y-124026525D01*
X162272240Y-123910000D01*
X162446632Y-123793475D01*
X162653475Y-123586632D01*
X162815990Y-123343411D01*
X162927932Y-123073158D01*
X162985000Y-122786260D01*
X162985000Y-122493740D01*
X162927932Y-122206842D01*
X162815990Y-121936589D01*
X162653475Y-121693368D01*
X162446632Y-121486525D01*
X162272240Y-121370000D01*
X162446632Y-121253475D01*
X162653475Y-121046632D01*
X162815990Y-120803411D01*
X162927932Y-120533158D01*
X162985000Y-120246260D01*
X162985000Y-119953740D01*
X162927932Y-119666842D01*
X162815990Y-119396589D01*
X162653475Y-119153368D01*
X162446632Y-118946525D01*
X162272240Y-118830000D01*
X162446632Y-118713475D01*
X162653475Y-118506632D01*
X162815990Y-118263411D01*
X162927932Y-117993158D01*
X162985000Y-117706260D01*
X162985000Y-117413740D01*
X162927932Y-117126842D01*
X162815990Y-116856589D01*
X162653475Y-116613368D01*
X162446632Y-116406525D01*
X162272240Y-116290000D01*
X162446632Y-116173475D01*
X162653475Y-115966632D01*
X162815990Y-115723411D01*
X162927932Y-115453158D01*
X162985000Y-115166260D01*
X162985000Y-114873740D01*
X162927932Y-114586842D01*
X162815990Y-114316589D01*
X162653475Y-114073368D01*
X162446632Y-113866525D01*
X162272240Y-113750000D01*
X162446632Y-113633475D01*
X162653475Y-113426632D01*
X162815990Y-113183411D01*
X162927932Y-112913158D01*
X162985000Y-112626260D01*
X162985000Y-112333740D01*
X162927932Y-112046842D01*
X162815990Y-111776589D01*
X162653475Y-111533368D01*
X162446632Y-111326525D01*
X162272240Y-111210000D01*
X162446632Y-111093475D01*
X162653475Y-110886632D01*
X162815990Y-110643411D01*
X162927932Y-110373158D01*
X162985000Y-110086260D01*
X162985000Y-109793740D01*
X162927932Y-109506842D01*
X162815990Y-109236589D01*
X162653475Y-108993368D01*
X162446632Y-108786525D01*
X162272240Y-108670000D01*
X162446632Y-108553475D01*
X162653475Y-108346632D01*
X162815990Y-108103411D01*
X162927932Y-107833158D01*
X162985000Y-107546260D01*
X162985000Y-107253740D01*
X162927932Y-106966842D01*
X162815990Y-106696589D01*
X162653475Y-106453368D01*
X162446632Y-106246525D01*
X162272240Y-106130000D01*
X162446632Y-106013475D01*
X162653475Y-105806632D01*
X162815990Y-105563411D01*
X162927932Y-105293158D01*
X162985000Y-105006260D01*
X162985000Y-104713740D01*
X162927932Y-104426842D01*
X162815990Y-104156589D01*
X162653475Y-103913368D01*
X162446632Y-103706525D01*
X162272240Y-103590000D01*
X162446632Y-103473475D01*
X162653475Y-103266632D01*
X162815990Y-103023411D01*
X162927932Y-102753158D01*
X162985000Y-102466260D01*
X162985000Y-102173740D01*
X162927932Y-101886842D01*
X162815990Y-101616589D01*
X162653475Y-101373368D01*
X162446632Y-101166525D01*
X162272240Y-101050000D01*
X162446632Y-100933475D01*
X162653475Y-100726632D01*
X162815990Y-100483411D01*
X162927932Y-100213158D01*
X162985000Y-99926260D01*
X162985000Y-99633740D01*
X162927932Y-99346842D01*
X162815990Y-99076589D01*
X162653475Y-98833368D01*
X162446632Y-98626525D01*
X162272240Y-98510000D01*
X162446632Y-98393475D01*
X162653475Y-98186632D01*
X162815990Y-97943411D01*
X162927932Y-97673158D01*
X162985000Y-97386260D01*
X162985000Y-97093740D01*
X162927932Y-96806842D01*
X162815990Y-96536589D01*
X162653475Y-96293368D01*
X162521620Y-96161513D01*
X162594180Y-96139502D01*
X162704494Y-96080537D01*
X162801185Y-96001185D01*
X162880537Y-95904494D01*
X162939502Y-95794180D01*
X162975812Y-95674482D01*
X162988072Y-95550000D01*
X162988072Y-93850000D01*
X162975812Y-93725518D01*
X162939502Y-93605820D01*
X162880537Y-93495506D01*
X162801185Y-93398815D01*
X162704494Y-93319463D01*
X162594180Y-93260498D01*
X162474482Y-93224188D01*
X162350000Y-93211928D01*
X160650000Y-93211928D01*
X160535000Y-93223254D01*
X160535000Y-73038552D01*
X160538797Y-72999999D01*
X160535000Y-72961446D01*
X160535000Y-72961439D01*
X160523641Y-72846113D01*
X160519754Y-72833297D01*
X160500930Y-72771246D01*
X160478754Y-72698140D01*
X160405862Y-72561767D01*
X160307764Y-72442236D01*
X160277817Y-72417659D01*
X157285000Y-69424843D01*
X157285000Y-69398061D01*
X157245226Y-69198102D01*
X157167205Y-69009744D01*
X157053937Y-68840226D01*
X156909774Y-68696063D01*
X156740256Y-68582795D01*
X156551898Y-68504774D01*
X156351939Y-68465000D01*
X156148061Y-68465000D01*
X155948102Y-68504774D01*
X155759744Y-68582795D01*
X155590226Y-68696063D01*
X155446063Y-68840226D01*
X155332795Y-69009744D01*
X155254774Y-69198102D01*
X155215000Y-69398061D01*
X155215000Y-69601939D01*
X155254774Y-69801898D01*
X155332795Y-69990256D01*
X155422828Y-70125000D01*
X155332795Y-70259744D01*
X155254774Y-70448102D01*
X155215000Y-70648061D01*
X155215000Y-70851939D01*
X155254774Y-71051898D01*
X155332795Y-71240256D01*
X155446063Y-71409774D01*
X155536289Y-71500000D01*
X155446063Y-71590226D01*
X155332795Y-71759744D01*
X155254774Y-71948102D01*
X155215000Y-72148061D01*
X155215000Y-72351939D01*
X155254774Y-72551898D01*
X155332795Y-72740256D01*
X155422828Y-72875000D01*
X155332795Y-73009744D01*
X155254774Y-73198102D01*
X155215000Y-73398061D01*
X155215000Y-73601939D01*
X155254774Y-73801898D01*
X155332795Y-73990256D01*
X155422828Y-74125000D01*
X155332795Y-74259744D01*
X155254774Y-74448102D01*
X155215000Y-74648061D01*
X155215000Y-74851939D01*
X155254774Y-75051898D01*
X155332795Y-75240256D01*
X155422828Y-75375000D01*
X155332795Y-75509744D01*
X155254774Y-75698102D01*
X155215000Y-75898061D01*
X155215000Y-76101939D01*
X155254774Y-76301898D01*
X155332795Y-76490256D01*
X155422828Y-76625000D01*
X155332795Y-76759744D01*
X155254774Y-76948102D01*
X155215000Y-77148061D01*
X155215000Y-77351939D01*
X155254774Y-77551898D01*
X155332795Y-77740256D01*
X155422828Y-77875000D01*
X155332795Y-78009744D01*
X155254774Y-78198102D01*
X155215000Y-78398061D01*
X155215000Y-78601939D01*
X155254774Y-78801898D01*
X155332795Y-78990256D01*
X155446063Y-79159774D01*
X155465000Y-79178711D01*
X155465000Y-81104842D01*
X154285000Y-79924843D01*
X154285000Y-79898061D01*
X154245226Y-79698102D01*
X154167205Y-79509744D01*
X154053937Y-79340226D01*
X153909774Y-79196063D01*
X153740256Y-79082795D01*
X153551898Y-79004774D01*
X153351939Y-78965000D01*
X153148061Y-78965000D01*
X152948102Y-79004774D01*
X152759744Y-79082795D01*
X152625000Y-79172828D01*
X152490256Y-79082795D01*
X152301898Y-79004774D01*
X152101939Y-78965000D01*
X151898061Y-78965000D01*
X151698102Y-79004774D01*
X151509744Y-79082795D01*
X151340226Y-79196063D01*
X151196063Y-79340226D01*
X151082795Y-79509744D01*
X151004774Y-79698102D01*
X150965000Y-79898061D01*
X150965000Y-79924842D01*
X150035000Y-80854843D01*
X150035000Y-79178711D01*
X150053937Y-79159774D01*
X150167205Y-78990256D01*
X150245226Y-78801898D01*
X150285000Y-78601939D01*
X150285000Y-78398061D01*
X150245226Y-78198102D01*
X150167205Y-78009744D01*
X150077172Y-77875000D01*
X150167205Y-77740256D01*
X150245226Y-77551898D01*
X150285000Y-77351939D01*
X150285000Y-77148061D01*
X150245226Y-76948102D01*
X150167205Y-76759744D01*
X150077172Y-76625000D01*
X150167205Y-76490256D01*
X150245226Y-76301898D01*
X150285000Y-76101939D01*
X150285000Y-75898061D01*
X150245226Y-75698102D01*
X150167205Y-75509744D01*
X150077172Y-75375000D01*
X150167205Y-75240256D01*
X150245226Y-75051898D01*
X150285000Y-74851939D01*
X150285000Y-74648061D01*
X150245226Y-74448102D01*
X150167205Y-74259744D01*
X150077172Y-74125000D01*
X150167205Y-73990256D01*
X150245226Y-73801898D01*
X150285000Y-73601939D01*
X150285000Y-73398061D01*
X150245226Y-73198102D01*
X150167205Y-73009744D01*
X150077172Y-72875000D01*
X150167205Y-72740256D01*
X150245226Y-72551898D01*
X150285000Y-72351939D01*
X150285000Y-72148061D01*
X150245226Y-71948102D01*
X150167205Y-71759744D01*
X150077172Y-71625000D01*
X150167205Y-71490256D01*
X150245226Y-71301898D01*
X150285000Y-71101939D01*
X150285000Y-70898061D01*
X150245226Y-70698102D01*
X150167205Y-70509744D01*
X150053937Y-70340226D01*
X149909774Y-70196063D01*
X149740256Y-70082795D01*
X149551898Y-70004774D01*
X149351939Y-69965000D01*
X149148061Y-69965000D01*
X148948102Y-70004774D01*
X148759744Y-70082795D01*
X148590226Y-70196063D01*
X148446063Y-70340226D01*
X148332795Y-70509744D01*
X148254774Y-70698102D01*
X148215000Y-70898061D01*
X148215000Y-70924843D01*
X145910139Y-73229704D01*
X145880185Y-73254287D01*
X145782087Y-73373819D01*
X145709195Y-73510192D01*
X145664308Y-73658165D01*
X145652949Y-73773491D01*
X145652949Y-73773498D01*
X145649152Y-73812051D01*
X145652949Y-73850604D01*
X145652950Y-80149386D01*
X145649152Y-80187949D01*
X145664308Y-80341835D01*
X145709195Y-80489808D01*
X145725772Y-80520821D01*
X145782088Y-80626182D01*
X145804719Y-80653757D01*
X145855604Y-80715761D01*
X145855608Y-80715765D01*
X145880186Y-80745713D01*
X145902940Y-80764387D01*
X145902941Y-92536902D01*
X145019144Y-93420699D01*
X145001185Y-93398815D01*
X144904494Y-93319463D01*
X144794180Y-93260498D01*
X144674482Y-93224188D01*
X144550000Y-93211928D01*
X142850000Y-93211928D01*
X142725518Y-93224188D01*
X142605820Y-93260498D01*
X142495506Y-93319463D01*
X142398815Y-93398815D01*
X142319463Y-93495506D01*
X142260498Y-93605820D01*
X142224188Y-93725518D01*
X142211928Y-93850000D01*
X142211928Y-95550000D01*
X142224188Y-95674482D01*
X142260498Y-95794180D01*
X142319463Y-95904494D01*
X142398815Y-96001185D01*
X142495506Y-96080537D01*
X142605820Y-96139502D01*
X142678380Y-96161513D01*
X142546525Y-96293368D01*
X142384010Y-96536589D01*
X142272068Y-96806842D01*
X142215000Y-97093740D01*
X142215000Y-97386260D01*
X142272068Y-97673158D01*
X142384010Y-97943411D01*
X142546525Y-98186632D01*
X142753368Y-98393475D01*
X142927760Y-98510000D01*
X142753368Y-98626525D01*
X142546525Y-98833368D01*
X142384010Y-99076589D01*
X142272068Y-99346842D01*
X142215000Y-99633740D01*
X142215000Y-99926260D01*
X142272068Y-100213158D01*
X142384010Y-100483411D01*
X142546525Y-100726632D01*
X142753368Y-100933475D01*
X142927760Y-101050000D01*
X142753368Y-101166525D01*
X142546525Y-101373368D01*
X142384010Y-101616589D01*
X142272068Y-101886842D01*
X142215000Y-102173740D01*
X142215000Y-102466260D01*
X142272068Y-102753158D01*
X142384010Y-103023411D01*
X142546525Y-103266632D01*
X142753368Y-103473475D01*
X142927760Y-103590000D01*
X142753368Y-103706525D01*
X142546525Y-103913368D01*
X142384010Y-104156589D01*
X142272068Y-104426842D01*
X142215000Y-104713740D01*
X142215000Y-105006260D01*
X142272068Y-105293158D01*
X142384010Y-105563411D01*
X142546525Y-105806632D01*
X142753368Y-106013475D01*
X142927760Y-106130000D01*
X142753368Y-106246525D01*
X142546525Y-106453368D01*
X142384010Y-106696589D01*
X142272068Y-106966842D01*
X142215000Y-107253740D01*
X142215000Y-107546260D01*
X142272068Y-107833158D01*
X142384010Y-108103411D01*
X142546525Y-108346632D01*
X142753368Y-108553475D01*
X142927760Y-108670000D01*
X142753368Y-108786525D01*
X142546525Y-108993368D01*
X142384010Y-109236589D01*
X142272068Y-109506842D01*
X142215000Y-109793740D01*
X142215000Y-110086260D01*
X142272068Y-110373158D01*
X142384010Y-110643411D01*
X142546525Y-110886632D01*
X142753368Y-111093475D01*
X142927760Y-111210000D01*
X142753368Y-111326525D01*
X142546525Y-111533368D01*
X142384010Y-111776589D01*
X142272068Y-112046842D01*
X142215000Y-112333740D01*
X142215000Y-112626260D01*
X142272068Y-112913158D01*
X142384010Y-113183411D01*
X142546525Y-113426632D01*
X142753368Y-113633475D01*
X142927760Y-113750000D01*
X142753368Y-113866525D01*
X142546525Y-114073368D01*
X142384010Y-114316589D01*
X142272068Y-114586842D01*
X142215000Y-114873740D01*
X142215000Y-115166260D01*
X142272068Y-115453158D01*
X142384010Y-115723411D01*
X142546525Y-115966632D01*
X142753368Y-116173475D01*
X142927760Y-116290000D01*
X142753368Y-116406525D01*
X142546525Y-116613368D01*
X142384010Y-116856589D01*
X142272068Y-117126842D01*
X142215000Y-117413740D01*
X142215000Y-117706260D01*
X142272068Y-117993158D01*
X142384010Y-118263411D01*
X142546525Y-118506632D01*
X142753368Y-118713475D01*
X142927760Y-118830000D01*
X142753368Y-118946525D01*
X142546525Y-119153368D01*
X142384010Y-119396589D01*
X142272068Y-119666842D01*
X142215000Y-119953740D01*
X142215000Y-120246260D01*
X142272068Y-120533158D01*
X142384010Y-120803411D01*
X142546525Y-121046632D01*
X142753368Y-121253475D01*
X142927760Y-121370000D01*
X142753368Y-121486525D01*
X142546525Y-121693368D01*
X142384010Y-121936589D01*
X142272068Y-122206842D01*
X142215000Y-122493740D01*
X142215000Y-122786260D01*
X142272068Y-123073158D01*
X142384010Y-123343411D01*
X142546525Y-123586632D01*
X142753368Y-123793475D01*
X142935534Y-123915195D01*
X142818645Y-123984822D01*
X142602412Y-124179731D01*
X142428359Y-124413080D01*
X142303175Y-124675901D01*
X142258524Y-124823110D01*
X142379845Y-125053000D01*
X143573000Y-125053000D01*
X143573000Y-125033000D01*
X143827000Y-125033000D01*
X143827000Y-125053000D01*
X145020155Y-125053000D01*
X145141476Y-124823110D01*
X145096825Y-124675901D01*
X144971641Y-124413080D01*
X144797588Y-124179731D01*
X144581355Y-123984822D01*
X144464466Y-123915195D01*
X144646632Y-123793475D01*
X144853475Y-123586632D01*
X145015990Y-123343411D01*
X145127932Y-123073158D01*
X145185000Y-122786260D01*
X145185000Y-122493740D01*
X145147075Y-122303082D01*
X152465001Y-114985156D01*
X152465001Y-121971437D01*
X152461203Y-122010000D01*
X152476359Y-122163886D01*
X152521246Y-122311859D01*
X152521247Y-122311860D01*
X152594139Y-122448233D01*
X152625227Y-122486113D01*
X152667655Y-122537812D01*
X152667659Y-122537816D01*
X152692237Y-122567764D01*
X152722185Y-122592342D01*
X160052924Y-129923082D01*
X160015000Y-130113740D01*
X160015000Y-130406260D01*
X160072068Y-130693158D01*
X160184010Y-130963411D01*
X160346525Y-131206632D01*
X160553368Y-131413475D01*
X160727760Y-131530000D01*
X160553368Y-131646525D01*
X160346525Y-131853368D01*
X160184010Y-132096589D01*
X160072068Y-132366842D01*
X160015000Y-132653740D01*
X160015000Y-132946260D01*
X160072068Y-133233158D01*
X160184010Y-133503411D01*
X160346525Y-133746632D01*
X160553368Y-133953475D01*
X160727760Y-134070000D01*
X160553368Y-134186525D01*
X160346525Y-134393368D01*
X160184010Y-134636589D01*
X160072068Y-134906842D01*
X160015000Y-135193740D01*
X160015000Y-135486260D01*
X160072068Y-135773158D01*
X160184010Y-136043411D01*
X160346525Y-136286632D01*
X160553368Y-136493475D01*
X160727760Y-136610000D01*
X160553368Y-136726525D01*
X160346525Y-136933368D01*
X160184010Y-137176589D01*
X160072068Y-137446842D01*
X160015000Y-137733740D01*
X160015000Y-138026260D01*
X160072068Y-138313158D01*
X160184010Y-138583411D01*
X160346525Y-138826632D01*
X160553368Y-139033475D01*
X160727760Y-139150000D01*
X160553368Y-139266525D01*
X160346525Y-139473368D01*
X160184010Y-139716589D01*
X160072068Y-139986842D01*
X160015000Y-140273740D01*
X160015000Y-140566260D01*
X160072068Y-140853158D01*
X160184010Y-141123411D01*
X160346525Y-141366632D01*
X160553368Y-141573475D01*
X160727760Y-141690000D01*
X160553368Y-141806525D01*
X160346525Y-142013368D01*
X160184010Y-142256589D01*
X160072068Y-142526842D01*
X160015000Y-142813740D01*
X160015000Y-143106260D01*
X160072068Y-143393158D01*
X160184010Y-143663411D01*
X160346525Y-143906632D01*
X160553368Y-144113475D01*
X160796589Y-144275990D01*
X161066842Y-144387932D01*
X161328603Y-144440000D01*
X143871397Y-144440000D01*
X144133158Y-144387932D01*
X144403411Y-144275990D01*
X144646632Y-144113475D01*
X144853475Y-143906632D01*
X145015990Y-143663411D01*
X145127932Y-143393158D01*
X145185000Y-143106260D01*
X145185000Y-142813740D01*
X145127932Y-142526842D01*
X145015990Y-142256589D01*
X144853475Y-142013368D01*
X144646632Y-141806525D01*
X144472240Y-141690000D01*
X144646632Y-141573475D01*
X144853475Y-141366632D01*
X145015990Y-141123411D01*
X145127932Y-140853158D01*
X145185000Y-140566260D01*
X145185000Y-140273740D01*
X145127932Y-139986842D01*
X145015990Y-139716589D01*
X144853475Y-139473368D01*
X144646632Y-139266525D01*
X144472240Y-139150000D01*
X144646632Y-139033475D01*
X144853475Y-138826632D01*
X145015990Y-138583411D01*
X145127932Y-138313158D01*
X145185000Y-138026260D01*
X145185000Y-137733740D01*
X145127932Y-137446842D01*
X145015990Y-137176589D01*
X144853475Y-136933368D01*
X144646632Y-136726525D01*
X144472240Y-136610000D01*
X144646632Y-136493475D01*
X144853475Y-136286632D01*
X145015990Y-136043411D01*
X145127932Y-135773158D01*
X145185000Y-135486260D01*
X145185000Y-135193740D01*
X145127932Y-134906842D01*
X145015990Y-134636589D01*
X144853475Y-134393368D01*
X144646632Y-134186525D01*
X144472240Y-134070000D01*
X144646632Y-133953475D01*
X144853475Y-133746632D01*
X145015990Y-133503411D01*
X145127932Y-133233158D01*
X145185000Y-132946260D01*
X145185000Y-132653740D01*
X145127932Y-132366842D01*
X145015990Y-132096589D01*
X144853475Y-131853368D01*
X144646632Y-131646525D01*
X144472240Y-131530000D01*
X144646632Y-131413475D01*
X144853475Y-131206632D01*
X145015990Y-130963411D01*
X145127932Y-130693158D01*
X145185000Y-130406260D01*
X145185000Y-130113740D01*
X145127932Y-129826842D01*
X145015990Y-129556589D01*
X144853475Y-129313368D01*
X144646632Y-129106525D01*
X144472240Y-128990000D01*
X144646632Y-128873475D01*
X144853475Y-128666632D01*
X145015990Y-128423411D01*
X145127932Y-128153158D01*
X145185000Y-127866260D01*
X145185000Y-127573740D01*
X145127932Y-127286842D01*
X145015990Y-127016589D01*
X144853475Y-126773368D01*
X144646632Y-126566525D01*
X144464466Y-126444805D01*
X144581355Y-126375178D01*
X144797588Y-126180269D01*
X144971641Y-125946920D01*
X145096825Y-125684099D01*
X145141476Y-125536890D01*
X145020155Y-125307000D01*
X143827000Y-125307000D01*
X143827000Y-125327000D01*
X143573000Y-125327000D01*
X143573000Y-125307000D01*
X142379845Y-125307000D01*
X142258524Y-125536890D01*
X142303175Y-125684099D01*
X142428359Y-125946920D01*
X142602412Y-126180269D01*
X142818645Y-126375178D01*
X142935534Y-126444805D01*
X142753368Y-126566525D01*
X142546525Y-126773368D01*
X142384010Y-127016589D01*
X142272068Y-127286842D01*
X142215000Y-127573740D01*
X142215000Y-127866260D01*
X142272068Y-128153158D01*
X142384010Y-128423411D01*
X142546525Y-128666632D01*
X142753368Y-128873475D01*
X142927760Y-128990000D01*
X142753368Y-129106525D01*
X142546525Y-129313368D01*
X142384010Y-129556589D01*
X142272068Y-129826842D01*
X142215000Y-130113740D01*
X142215000Y-130406260D01*
X142272068Y-130693158D01*
X142384010Y-130963411D01*
X142546525Y-131206632D01*
X142753368Y-131413475D01*
X142927760Y-131530000D01*
X142753368Y-131646525D01*
X142546525Y-131853368D01*
X142384010Y-132096589D01*
X142272068Y-132366842D01*
X142215000Y-132653740D01*
X142215000Y-132946260D01*
X142272068Y-133233158D01*
X142384010Y-133503411D01*
X142546525Y-133746632D01*
X142753368Y-133953475D01*
X142927760Y-134070000D01*
X142753368Y-134186525D01*
X142546525Y-134393368D01*
X142384010Y-134636589D01*
X142272068Y-134906842D01*
X142215000Y-135193740D01*
X142215000Y-135486260D01*
X142272068Y-135773158D01*
X142384010Y-136043411D01*
X142546525Y-136286632D01*
X142753368Y-136493475D01*
X142927760Y-136610000D01*
X142753368Y-136726525D01*
X142546525Y-136933368D01*
X142384010Y-137176589D01*
X142272068Y-137446842D01*
X142215000Y-137733740D01*
X142215000Y-138026260D01*
X142272068Y-138313158D01*
X142384010Y-138583411D01*
X142546525Y-138826632D01*
X142753368Y-139033475D01*
X142927760Y-139150000D01*
X142753368Y-139266525D01*
X142546525Y-139473368D01*
X142384010Y-139716589D01*
X142272068Y-139986842D01*
X142215000Y-140273740D01*
X142215000Y-140566260D01*
X142272068Y-140853158D01*
X142384010Y-141123411D01*
X142546525Y-141366632D01*
X142753368Y-141573475D01*
X142927760Y-141690000D01*
X142753368Y-141806525D01*
X142546525Y-142013368D01*
X142384010Y-142256589D01*
X142272068Y-142526842D01*
X142215000Y-142813740D01*
X142215000Y-143106260D01*
X142272068Y-143393158D01*
X142384010Y-143663411D01*
X142546525Y-143906632D01*
X142753368Y-144113475D01*
X142996589Y-144275990D01*
X143266842Y-144387932D01*
X143528603Y-144440000D01*
X142160000Y-144440000D01*
X142160000Y-65128467D01*
X163340001Y-65175534D01*
M02*
