M48
; DRILL file {KiCad (5.1.5-0-10_14)} date Thursday, 30 April 2020 at 13:14:38
; FORMAT={-:-/ absolute / inch / decimal}
; #@! TF.CreationDate,2020-04-30T13:14:38+04:00
; #@! TF.GenerationSoftware,Kicad,Pcbnew,(5.1.5-0-10_14)
FMAT,2
INCH
T1C0.0157
T2C0.0394
%
G90
G05
T1
X5.7402Y-3.3898
X5.7618Y-2.7461
X5.876Y-2.7953
X5.876Y-2.8445
X5.876Y-2.8937
X5.876Y-2.9429
X5.876Y-2.9921
X5.876Y-3.0413
X5.876Y-3.0906
X5.9843Y-3.1496
X5.9843Y-3.189
X5.9843Y-3.2382
X5.9843Y-3.2874
X5.9843Y-3.3465
X6.0335Y-3.1496
X6.0335Y-3.189
X6.0335Y-3.2382
X6.0335Y-3.2874
X6.0335Y-3.3465
X6.0335Y-3.3957
X6.1516Y-2.7362
X6.1516Y-2.7854
X6.1516Y-2.8445
X6.1516Y-2.8937
X6.1516Y-2.9429
X6.1516Y-2.9921
X6.1516Y-3.0413
X6.1516Y-3.0906
X6.2638Y-2.6398
T2
X6.3583Y-3.7283
X6.3583Y-3.8283
X6.3583Y-3.9283
X6.3583Y-4.0283
X6.3583Y-4.1283
X6.3583Y-4.2283
X6.3583Y-4.3283
X6.3583Y-4.4283
X6.3583Y-4.5283
X6.3583Y-4.6283
X6.3583Y-4.7283
X6.3583Y-4.8283
X6.3583Y-4.9283
X6.3583Y-5.0283
X6.3583Y-5.1283
X6.3583Y-5.2283
X6.3583Y-5.3283
X6.3583Y-5.4283
X6.3583Y-5.5283
X6.3583Y-5.6283
X5.6575Y-3.7283
X5.6575Y-3.8283
X5.6575Y-3.9283
X5.6575Y-4.0283
X5.6575Y-4.1283
X5.6575Y-4.2283
X5.6575Y-4.3283
X5.6575Y-4.4283
X5.6575Y-4.5283
X5.6575Y-4.6283
X5.6575Y-4.7283
X5.6575Y-4.8283
X5.6575Y-4.9283
X5.6575Y-5.0283
X5.6575Y-5.1283
X5.6575Y-5.2283
X5.6575Y-5.3283
X5.6575Y-5.4283
X5.6575Y-5.5283
X5.6575Y-5.6283
T0
M30
